<svg width="41" height="40" viewBox="0 0 41 40" fill="none" xmlns="http://www.w3.org/2000/svg">
<path fill-rule="evenodd" clip-rule="evenodd" d="M20.1426 38C30.0837 38 38.1426 29.9411 38.1426 20C38.1426 10.0589 30.0837 2 20.1426 2C10.2015 2 2.14258 10.0589 2.14258 20C2.14258 29.9411 10.2015 38 20.1426 38ZM20.1426 40C31.1883 40 40.1426 31.0457 40.1426 20C40.1426 8.9543 31.1883 0 20.1426 0C9.09688 0 0.142578 8.9543 0.142578 20C0.142578 31.0457 9.09688 40 20.1426 40Z" fill="white"/>
<path d="M12.0604 14.1597H9.67861C9.65005 14.8726 8.64478 16.0875 7.14258 16.0875V18.0494C8.43344 18.0494 9.27307 17.5703 9.52439 17.1825H9.63291V25.8403H12.0604V14.1597Z" fill="white"/>
<path d="M19.2073 26C21.8347 26 23.7367 24.5913 23.7481 22.6977C23.7367 21.2376 22.6172 20.0456 21.2121 19.8118V19.7319C22.4344 19.481 23.3026 18.4202 23.314 17.1426C23.3026 15.3346 21.5662 14 19.2073 14C16.8312 14 15.0948 15.3346 15.1062 17.1426C15.0948 18.4202 15.963 19.481 17.2082 19.7319V19.8118C15.7802 20.0456 14.6607 21.2376 14.6721 22.6977C14.6607 24.5913 16.557 26 19.2073 26ZM19.2073 24.1863C18.0249 24.1863 17.231 23.4962 17.2424 22.5038C17.231 21.4943 18.0649 20.7643 19.2073 20.7643C20.3325 20.7643 21.1607 21.4943 21.1721 22.5038C21.1607 23.4962 20.3725 24.1863 19.2073 24.1863ZM19.2073 18.9677C18.2134 18.9677 17.5052 18.3232 17.5166 17.3992C17.5052 16.4924 18.202 15.8593 19.2073 15.8593C20.1954 15.8593 20.8865 16.4924 20.898 17.3992C20.8865 18.3232 20.184 18.9677 19.2073 18.9677Z" fill="white"/>
<path d="M33.1426 19.0589H30.3324V16.3498H28.4189V19.0589H25.6087V20.9411H28.4189V23.6502H30.3324V20.9411H33.1426V19.0589Z" fill="white"/>
</svg>
