<svg width="22" height="22" viewBox="0 0 22 22" fill="none" xmlns="http://www.w3.org/2000/svg">
<circle cx="11" cy="11" r="11" fill="white"/>
<path fill-rule="evenodd" clip-rule="evenodd" d="M11 4.25L4.2134 6.86415C4.16003 6.88476 4.125 6.93455 4.125 6.98992V7.82208C4.125 7.89686 4.18794 7.95752 4.26565 7.95752H17.7344C17.812 7.95752 17.875 7.89686 17.875 7.82208V6.98992C17.875 6.93455 17.84 6.88476 17.7866 6.86415L11 4.25ZM9.62485 8.54636C9.62485 8.47159 9.68781 8.41092 9.76549 8.41092H12.2343C12.312 8.41092 12.3749 8.47159 12.3749 8.54636V9.06993C12.3749 9.14471 12.312 9.20537 12.2343 9.20537H11.8249V14.0473H12.2343C12.312 14.0473 12.3749 14.1079 12.3749 14.1827V14.7063C12.3749 14.7812 12.312 14.8418 12.2343 14.8418H9.76549C9.68781 14.8418 9.62485 14.7812 9.62485 14.7063V14.1827C9.62485 14.1079 9.68781 14.0473 9.76549 14.0473H10.1748V9.20537H9.76549C9.68781 9.20537 9.62485 9.14471 9.62485 9.06993V8.54636ZM8.20036 8.54672C8.20036 8.47195 8.13736 8.41128 8.05972 8.41128H5.59098C5.51333 8.41128 5.45034 8.47195 5.45034 8.54672V9.07029C5.45034 9.14515 5.51333 9.20574 5.59098 9.20574H6.00035V14.0477H5.59098C5.51333 14.0477 5.45034 14.1083 5.45034 14.1832V14.7068C5.45034 14.7815 5.51333 14.8422 5.59098 14.8422H8.05972C8.13736 14.8422 8.20036 14.7815 8.20036 14.7068V14.1832C8.20036 14.1083 8.13736 14.0477 8.05972 14.0477H7.65034V9.20574H8.05972C8.13736 9.20574 8.20036 9.14515 8.20036 9.07029V8.54672ZM13.8611 8.54672C13.8611 8.47195 13.9241 8.41128 14.0017 8.41128H16.4704C16.5481 8.41128 16.6111 8.47195 16.6111 8.54672V9.07029C16.6111 9.14515 16.5481 9.20574 16.4704 9.20574H16.0611V14.0477H16.4704C16.5481 14.0477 16.6111 14.1083 16.6111 14.1832V14.7068C16.6111 14.7815 16.5481 14.8422 16.4704 14.8422H14.0017C13.9241 14.8422 13.8611 14.7815 13.8611 14.7068V14.1832C13.8611 14.1083 13.9241 14.0477 14.0017 14.0477H14.4111V9.20574H14.0017C13.9241 9.20574 13.8611 9.14515 13.8611 9.07029V8.54672ZM4.26565 16.75C4.18794 16.75 4.125 16.6894 4.125 16.6146V15.441C4.125 15.3661 4.18794 15.3055 4.26565 15.3055H17.7344C17.812 15.3055 17.875 15.3661 17.875 15.441V16.6146C17.875 16.6894 17.812 16.75 17.7344 16.75H4.26565Z" fill="#2A73BB"/>
</svg>
