<svg width="22" height="22" viewBox="0 0 22 22" fill="none" xmlns="http://www.w3.org/2000/svg">
<circle cx="11" cy="11" r="11" fill="white"/>
<path d="M19.7306 13.1772C18.5284 17.9986 13.6446 20.9329 8.82201 19.7306C4.00144 18.5285 1.06684 13.6449 2.2696 8.82378C3.47122 4.0018 8.35509 1.06727 13.1762 2.26932C17.9985 3.47137 20.9328 8.35551 19.7306 13.1772Z" fill="#F7931A"/>
<path d="M14.969 9.71828C15.1481 8.52073 14.2362 7.87695 12.9893 7.44749L13.3938 5.82525L12.4062 5.57916L12.0124 7.15864C11.7528 7.09396 11.4862 7.03293 11.2212 6.97246L11.6178 5.38257L10.6308 5.13647L10.226 6.75814C10.0111 6.70921 9.80017 6.66084 9.5954 6.60993L9.59652 6.60487L8.23457 6.26484L7.97186 7.31951C7.97186 7.31951 8.70459 7.48742 8.68912 7.49782C9.0891 7.59767 9.16138 7.86232 9.14929 8.07213L8.68855 9.92021C8.71612 9.92724 8.75185 9.93737 8.79122 9.95312C8.75831 9.94496 8.72315 9.93596 8.68687 9.92724L8.04104 12.5161C7.9921 12.6376 7.86806 12.8199 7.58847 12.7507C7.59832 12.765 6.87065 12.5715 6.87065 12.5715L6.38037 13.7019L7.66554 14.0222C7.90463 14.0821 8.13893 14.1448 8.36958 14.2039L7.96089 15.8447L8.94733 16.0908L9.35209 14.4674C9.62156 14.5405 9.88315 14.608 10.1391 14.6716L9.73576 16.2874L10.7233 16.5335L11.132 14.8958C12.8161 15.2144 14.0824 15.0859 14.6154 13.5629C15.0449 12.3367 14.594 11.6294 13.708 11.1681C14.3532 11.0193 14.8393 10.5949 14.969 9.71828ZM12.7125 12.882C12.4074 14.1083 10.3425 13.4454 9.67303 13.2791L10.2153 11.1054C10.8848 11.2724 13.0315 11.6032 12.7125 12.882ZM13.018 9.70055C12.7395 10.816 11.0209 10.2493 10.4634 10.1103L10.9551 8.13879C11.5126 8.27773 13.308 8.53703 13.018 9.70055Z" fill="white"/>
</svg>
