<?xml version="1.0" encoding="UTF-8"?>
<!DOCTYPE svg PUBLIC "-//W3C//DTD SVG 1.1//EN" "http://www.w3.org/Graphics/SVG/1.1/DTD/svg11.dtd">
<!-- Creator: CorelDRAW X7 -->
<svg xmlns="http://www.w3.org/2000/svg" xml:space="preserve" width="236mm" height="96.5mm" version="1.1" style="shape-rendering:geometricPrecision; text-rendering:geometricPrecision; image-rendering:optimizeQuality; fill-rule:evenodd; clip-rule:evenodd"
viewBox="0 0 23600 9650"
 xmlns:xlink="http://www.w3.org/1999/xlink">
 <defs>
  <style type="text/css">
   <![CDATA[
    .fil17 {fill:#2F213D}
    .fil1 {fill:#3E314B}
    .fil16 {fill:#473A56}
    .fil2 {fill:#6A5C80}
    .fil13 {fill:#FACD50}
    .fil7 {fill:#FBB03D}
    .fil3 {fill:#FCCD4B}
    .fil10 {fill:#FECC47}
    .fil8 {fill:#FF953A}
    .fil6 {fill:#FF9934}
    .fil11 {fill:#FFB63F}
    .fil4 {fill:#FFE46F}
    .fil15 {fill:white}
    .fil0 {fill:black;fill-rule:nonzero}
    .fil14 {fill:#FFFD99;fill-rule:nonzero}
    .fil38 {fill:url(#id0)}
    .fil18 {fill:url(#id1)}
    .fil37 {fill:url(#id2)}
    .fil41 {fill:url(#id3)}
    .fil19 {fill:url(#id4)}
    .fil22 {fill:url(#id5)}
    .fil12 {fill:url(#id6)}
    .fil24 {fill:url(#id7)}
    .fil31 {fill:url(#id8)}
    .fil26 {fill:url(#id9)}
    .fil42 {fill:url(#id10)}
    .fil21 {fill:url(#id11)}
    .fil40 {fill:url(#id12)}
    .fil23 {fill:url(#id13)}
    .fil9 {fill:url(#id14)}
    .fil28 {fill:url(#id15)}
    .fil34 {fill:url(#id16)}
    .fil27 {fill:url(#id17)}
    .fil29 {fill:url(#id18)}
    .fil20 {fill:url(#id19)}
    .fil43 {fill:url(#id20)}
    .fil39 {fill:url(#id21)}
    .fil5 {fill:url(#id22)}
    .fil33 {fill:url(#id23)}
    .fil32 {fill:url(#id24)}
    .fil25 {fill:url(#id25)}
    .fil35 {fill:url(#id26)}
    .fil36 {fill:url(#id27)}
    .fil30 {fill:url(#id28)}
   ]]>
  </style>
  <linearGradient id="id0" gradientUnits="userSpaceOnUse" x1="20265.7" y1="5152.73" x2="21529" y2="6749.59">
   <stop offset="0" style="stop-opacity:1; stop-color:#406500"/>
   <stop offset="1" style="stop-opacity:1; stop-color:#7EA903"/>
  </linearGradient>
  <linearGradient id="id1" gradientUnits="userSpaceOnUse" x1="18182.1" y1="6211.02" x2="19703" y2="6211.02">
   <stop offset="0" style="stop-opacity:1; stop-color:#4B6E00"/>
   <stop offset="1" style="stop-opacity:1; stop-color:#6EA303"/>
  </linearGradient>
  <linearGradient id="id2" gradientUnits="userSpaceOnUse" x1="21334.4" y1="4207.47" x2="22049.7" y2="3997.17">
   <stop offset="0" style="stop-opacity:1; stop-color:#FFF920"/>
   <stop offset="1" style="stop-opacity:1; stop-color:#FCF762"/>
  </linearGradient>
  <linearGradient id="id3" gradientUnits="userSpaceOnUse" x1="19582" y1="6502.2" x2="20938.7" y2="5695.05">
   <stop offset="0" style="stop-opacity:1; stop-color:#537D00"/>
   <stop offset="1" style="stop-opacity:1; stop-color:#B5D100"/>
  </linearGradient>
  <linearGradient id="id4" gradientUnits="userSpaceOnUse" x1="18199.7" y1="6358.77" x2="19575.7" y2="6358.77">
   <stop offset="0" style="stop-opacity:1; stop-color:#F6FF64"/>
   <stop offset="1" style="stop-opacity:1; stop-color:#8FCA10"/>
  </linearGradient>
  <linearGradient id="id5" gradientUnits="userSpaceOnUse" x1="17098.8" y1="4664.34" x2="19002.1" y2="4664.34">
   <stop offset="0" style="stop-opacity:1; stop-color:#F7F86C"/>
   <stop offset="1" style="stop-opacity:1; stop-color:#DFE300"/>
  </linearGradient>
  <linearGradient id="id6" gradientUnits="userSpaceOnUse" x1="19662.2" y1="8126.17" x2="23103.1" y2="8126.17">
   <stop offset="0" style="stop-opacity:1; stop-color:#FECC47"/>
   <stop offset="1" style="stop-opacity:1; stop-color:#FFDD88"/>
  </linearGradient>
  <linearGradient id="id7" gradientUnits="userSpaceOnUse" x1="18285.1" y1="6235.11" x2="18689.5" y2="4995.84">
   <stop offset="0" style="stop-opacity:1; stop-color:#77A600"/>
   <stop offset="1" style="stop-opacity:1; stop-color:#8EB500"/>
  </linearGradient>
  <linearGradient id="id8" gradientUnits="userSpaceOnUse" x1="18900.8" y1="2457.91" x2="19582.8" y2="3201.49">
   <stop offset="0" style="stop-opacity:1; stop-color:#FFFA91"/>
   <stop offset="1" style="stop-opacity:1; stop-color:#ECF90B"/>
  </linearGradient>
  <linearGradient id="id9" gradientUnits="userSpaceOnUse" x1="18068.8" y1="3114.11" x2="19354.4" y2="4536.73">
   <stop offset="0" style="stop-opacity:1; stop-color:#A8C900"/>
   <stop offset="1" style="stop-opacity:1; stop-color:#2A4D00"/>
  </linearGradient>
  <linearGradient id="id10" gradientUnits="userSpaceOnUse" x1="20367" y1="6788.87" x2="20264.9" y2="5033.7">
   <stop offset="0" style="stop-opacity:1; stop-color:#C5CF00"/>
   <stop offset="1" style="stop-opacity:1; stop-color:#96BF00"/>
  </linearGradient>
  <linearGradient id="id11" gradientUnits="userSpaceOnUse" x1="17026.6" y1="4983.9" x2="19623.5" y2="4983.9">
   <stop offset="0" style="stop-opacity:1; stop-color:#D4E300"/>
   <stop offset="1" style="stop-opacity:1; stop-color:#BFC200"/>
  </linearGradient>
  <linearGradient id="id12" gradientUnits="userSpaceOnUse" x1="20712.1" y1="5095.72" x2="21270" y2="5800.97">
   <stop offset="0" style="stop-opacity:1; stop-color:#C8E600"/>
   <stop offset="1" style="stop-opacity:1; stop-color:#FEFE44"/>
  </linearGradient>
  <linearGradient id="id13" gradientUnits="userSpaceOnUse" x1="18060.2" y1="6344.88" x2="19236.7" y2="5081.85">
   <stop offset="0" style="stop-opacity:1; stop-color:#305C00"/>
   <stop offset="1" style="stop-opacity:1; stop-color:#6B9F03"/>
  </linearGradient>
  <linearGradient id="id14" gradientUnits="userSpaceOnUse" x1="16034.7" y1="7648.51" x2="16034.7" y2="1398.4">
   <stop offset="0" style="stop-opacity:1; stop-color:#FFD068"/>
   <stop offset="1" style="stop-opacity:1; stop-color:#FFF9AC"/>
  </linearGradient>
  <linearGradient id="id15" gradientUnits="userSpaceOnUse" x1="18005.3" y1="2927.84" x2="18749.8" y2="3402.83">
   <stop offset="0" style="stop-opacity:1; stop-color:#F7FF33"/>
   <stop offset="1" style="stop-opacity:1; stop-color:#C4DE00"/>
  </linearGradient>
  <linearGradient id="id16" gradientUnits="userSpaceOnUse" x1="21151" y1="3081.93" x2="20642.7" y2="4016.01">
   <stop offset="0" style="stop-opacity:1; stop-color:#FFF956"/>
   <stop offset="1" style="stop-opacity:1; stop-color:#D7EB00"/>
  </linearGradient>
  <linearGradient id="id17" gradientUnits="userSpaceOnUse" x1="17911.8" y1="3191.61" x2="19296.8" y2="4154.6">
   <stop offset="0" style="stop-opacity:1; stop-color:#CDE800"/>
   <stop offset="1" style="stop-opacity:1; stop-color:#446E00"/>
  </linearGradient>
  <linearGradient id="id18" gradientUnits="userSpaceOnUse" x1="18628.7" y1="2845.43" x2="19915.2" y2="4248.16">
   <stop offset="0" style="stop-opacity:1; stop-color:#DDDE0E"/>
   <stop offset="1" style="stop-opacity:1; stop-color:#95AB00"/>
  </linearGradient>
  <linearGradient id="id19" gradientUnits="userSpaceOnUse" x1="18438.8" y1="6399.37" x2="19613.5" y2="6399.37">
   <stop offset="0" style="stop-opacity:1; stop-color:#2D5900"/>
   <stop offset="1" style="stop-opacity:1; stop-color:#628E05"/>
  </linearGradient>
  <linearGradient id="id20" gradientUnits="userSpaceOnUse" x1="20307.2" y1="6082.3" x2="20264" y2="5340.03">
   <stop offset="0" style="stop-opacity:1; stop-color:#FCEC61"/>
   <stop offset="1" style="stop-opacity:1; stop-color:#C8E600"/>
  </linearGradient>
  <linearGradient id="id21" gradientUnits="userSpaceOnUse" x1="20282.5" y1="5074.11" x2="21382.2" y2="6464.22">
   <stop offset="0" style="stop-opacity:1; stop-color:#7C9E00"/>
   <stop offset="1" style="stop-opacity:1; stop-color:#C3D700"/>
  </linearGradient>
  <linearGradient id="id22" gradientUnits="userSpaceOnUse" x1="21148.5" y1="1584.9" x2="23476.3" y2="1584.9">
   <stop offset="0" style="stop-opacity:1; stop-color:#FEED9D"/>
   <stop offset="1" style="stop-opacity:1; stop-color:#FFDC84"/>
  </linearGradient>
  <linearGradient id="id23" gradientUnits="userSpaceOnUse" x1="21214" y1="3111.16" x2="20361.8" y2="4677.33">
   <stop offset="0" style="stop-opacity:1; stop-color:#C9DB00"/>
   <stop offset="1" style="stop-opacity:1; stop-color:#406500"/>
  </linearGradient>
  <linearGradient id="id24" gradientUnits="userSpaceOnUse" x1="21213.1" y1="3122.92" x2="20331.6" y2="4742.91">
   <stop offset="0" style="stop-opacity:1; stop-color:#CAD606"/>
   <stop offset="1" style="stop-opacity:1; stop-color:#1E3C00"/>
  </linearGradient>
  <linearGradient id="id25" gradientUnits="userSpaceOnUse" x1="17881.7" y1="5451.24" x2="18721.5" y2="5451.24">
   <stop offset="0" style="stop-opacity:1; stop-color:#F8F96F"/>
   <stop offset="1" style="stop-opacity:1; stop-color:#C7E200"/>
  </linearGradient>
  <linearGradient id="id26" gradientUnits="userSpaceOnUse" x1="20019.1" y1="4706.99" x2="22029.3" y2="4116.04">
   <stop offset="0" style="stop-opacity:1; stop-color:#7C9E00"/>
   <stop offset="1" style="stop-opacity:1; stop-color:#7EAB03"/>
  </linearGradient>
  <linearGradient id="id27" gradientUnits="userSpaceOnUse" x1="20496.6" y1="4532.16" x2="22067.7" y2="4070.29">
   <stop offset="0" style="stop-opacity:1; stop-color:#A1B600"/>
   <stop offset="1" style="stop-opacity:1; stop-color:#D9E800"/>
  </linearGradient>
  <linearGradient id="id28" gradientUnits="userSpaceOnUse" x1="18743.3" y1="2641.95" x2="19800.7" y2="3794.86">
   <stop offset="0" style="stop-opacity:1; stop-color:#EFEC13"/>
   <stop offset="1" style="stop-opacity:1; stop-color:#B5C002"/>
  </linearGradient>
 </defs>
 <g id="Слой_x0020_1">
  <metadata id="CorelCorpID_0Corel-Layer"/>
  <g id="_1604866872608">
   <path class="fil0" d="M15848 1275l2125 0 1614 -1249c46,-36 109,-34 152,1l1612 1248 2125 0c69,0 124,55 124,123l0 6251c0,51 -32,96 -77,114l-3806 1874c-36,18 -76,17 -109,0l-3815 -1878c-60,-30 -69,-79 -69,-137l0 -6224c0,-68 56,-123 124,-123z"/>
   <polygon class="fil1" points="15848,1398 18015,1398 19662,123 21310,1398 23476,1398 23476,7649 19662,9527 15848,7649 "/>
   <path class="fil2" d="M16813 2509l371 0 25 3647 25 -3647 655 0 25 5212 -1101 -552 0 -4660zm1126 0l493 0 402 -322 16 1468 16 -1493 52 -42 17 1640 18 -1668 235 -188 13 1222 13 -1243 56 -45 15 1390 15 -1414 179 -143 15 1455 16 -1480 68 -54 49 4597 50 -4653 556 445 29 2691 29 -2645 409 328 31 2894 30 -2845 132 105 590 0 19 1776 19 -1776 311 0 20 1835 19 -1835 212 0 12 1146 12 -1146 190 0 22 1308 21 -1308 171 0 0 4660 -1366 685 -15 -712 -16 727 -358 180 -28 -2588 -28 2616 -259 130 -17 -1603 -18 1620 -244 123 -22 -2054 -23 2076 -433 217 -40 -3773 -40 3755 -331 -166 -11 -2030 -10 2020 -206 -103 -19 -1819 -20 1799 -429 -215 -23 -2174 -23 2151 -618 -310 25 -5212z"/>
   <g>
    <path class="fil3" d="M18338 2147l1324 -1024 1324 1024 1741 0 0 5013 -3065 1509 -3065 -1509 0 -5013 1741 0zm5138 5502l0 -6251 -2166 0 -1648 -1275 -1647 1275 -2167 0 0 6251 3814 1878 3814 -1878z"/>
    <g>
     <polygon class="fil3" points="16221,1771 18176,1771 18015,1398 15848,1398 "/>
     <polygon class="fil4" points="19662,123 18015,1398 18176,1771 19662,621 "/>
     <polygon class="fil3" points="21149,1771 21310,1398 19662,123 19662,621 "/>
     <polygon class="fil5" points="23476,1398 21310,1398 21149,1771 23103,1771 "/>
     <polygon class="fil6" points="23103,1771 23103,7405 23476,7649 23476,1398 "/>
     <polygon class="fil7" points="20986,2147 22727,2147 23103,1771 21149,1771 19662,621 19662,1123 "/>
     <polygon class="fil8" points="18338,2147 19662,1123 19662,621 18176,1771 "/>
     <polygon class="fil9" points="16221,7405 16221,1771 15848,1398 15848,7649 "/>
     <polygon class="fil10" points="19662,8669 16597,7160 16597,2147 18338,2147 18176,1771 16221,1771 16221,7405 19662,9093 "/>
     <polygon class="fil11" points="19662,9093 16221,7405 15848,7649 19662,9527 "/>
     <polygon class="fil6" points="23103,7405 19662,9093 19662,9527 23476,7649 "/>
     <polygon class="fil12" points="19662,9093 23103,7405 22727,7160 19662,8669 "/>
     <polygon class="fil13" points="22727,2147 22727,7160 23103,7405 23103,1771 "/>
    </g>
    <path class="fil14" d="M18165 1747l1497 -1157 1497 1157 1969 0 0 5674 -3466 1699 -3465 -1699 0 -5674 1968 0zm-1919 49l0 5593 3416 1676 3416 -1676 0 -5593 -1941 0 -1475 -1144 -1475 1144 -1941 0z"/>
   </g>
  </g>
  <path class="fil0" d="M5679 5075l-272 463c-73,125 -197,88 -304,42 -116,-51 -470,-180 -546,-52 -65,110 308,243 373,270 167,68 305,125 471,273 139,124 233,279 278,446l0 -1442zm4 -246c21,-100 110,-173 212,-173l698 0c119,0 217,98 217,217l0 1905 781 0c27,0 53,5 77,14 -85,-186 -132,-393 -132,-610 0,-423 180,-806 470,-1083 290,-276 688,-447 1128,-447 440,0 839,171 1128,447 57,54 110,112 158,174l0 -400c0,-119 98,-217 216,-217l2358 0c119,0 217,98 217,217l0 257c92,-131 220,-240 372,-323 291,-159 640,-205 967,-185 256,16 510,70 749,139 153,45 205,162 125,298l-281 479c-62,106 -173,99 -271,56 -79,-35 -153,-66 -224,-87 -79,-23 -308,-67 -355,23 -38,75 129,161 187,188 244,114 443,162 657,353 141,126 235,282 279,451 45,170 38,352 -23,529 -59,168 -163,306 -294,412 -143,116 -316,195 -494,237 -192,45 -415,55 -639,42 -259,-15 -519,-60 -735,-119 -136,-37 -181,-136 -137,-267l154 -465c47,-142 135,-200 299,-138 206,78 355,139 580,131 81,-2 117,-40 118,-69 0,-58 -132,-106 -189,-130 -399,-166 -777,-340 -939,-775 -43,-115 -62,-227 -59,-333 -20,6 -42,10 -64,10l-613 0 0 1905c0,119 -98,217 -217,217l-698 0c-119,0 -216,-98 -216,-217l0 -1905 -614 0c-10,0 -20,-1 -30,-2 82,183 127,385 127,597 0,424 -180,807 -471,1084 -621,593 -1634,593 -2256,0 -73,-70 -140,-147 -198,-230l0 456c0,59 -25,114 -64,153 -39,39 -93,64 -153,64l-1696 0c-118,0 -216,-98 -216,-217l0 -514c-51,195 -159,358 -316,485 -143,116 -316,195 -494,237 -193,45 -416,55 -639,42 -259,-15 -519,-60 -735,-119 -137,-37 -181,-136 -138,-267l170 -507c51,-153 190,-131 303,-89 193,73 345,128 565,120 43,-1 102,-17 107,-67 7,-57 -103,-95 -146,-113 -335,-139 -720,-298 -911,-649 -26,-47 -47,-94 -65,-141 -88,-238 -71,-460 20,-652 88,-187 248,-342 447,-451 291,-159 639,-205 967,-185 249,15 497,67 731,134 54,15 99,27 138,73zm6793 -3541l744 0c122,0 223,101 223,223l0 874 755 0 0 -874c0,-122 101,-223 223,-223l745 0c122,0 223,101 223,223l0 2793c0,122 -101,223 -223,223l-745 0c-122,0 -223,-101 -223,-223l0 -867 -755 0 0 868c0,117 -93,214 -208,222l-759 0c-123,0 -223,-101 -223,-223l0 -514c-4,13 -9,26 -13,39 -62,179 -172,324 -310,436 -151,123 -335,206 -523,250 -204,48 -441,59 -679,45 -274,-15 -551,-64 -780,-126 -56,-15 -95,-38 -121,-72 -13,98 -95,165 -193,165l-875 0c-112,0 -225,-82 -254,-191l-93 -353 -687 0 -108 346c-36,112 -135,198 -256,198l-856 0c-107,0 -193,-80 -193,-190 -17,108 -111,190 -221,190l-1809 0c-122,0 -222,-100 -222,-223l0 -2735c-6,30 -20,60 -38,93l-291 523c-102,182 -143,144 -326,127 -112,-11 -228,-22 -339,-16 -177,9 -329,79 -435,192 -106,110 -168,264 -168,442 0,149 48,285 128,393 81,109 194,188 324,220 123,31 260,6 396,-18 168,-30 271,-60 359,116l266 535c59,120 17,246 -121,280 -195,49 -454,95 -710,114 -212,16 -423,14 -598,-17 -379,-67 -712,-272 -950,-563 -232,-284 -372,-651 -372,-1052 0,-281 69,-547 192,-779 378,-718 1181,-988 1957,-911 193,19 385,57 572,108 90,24 137,68 153,137 0,2 1,4 1,6 3,-57 28,-108 65,-145 41,-41 96,-66 157,-66l745 0c122,0 223,101 223,223l0 2040 841 0c61,0 117,25 157,66 41,40 66,96 66,157l0 530 0 2c2,-14 6,-28 11,-43l990 -2793c36,-101 142,-182 251,-182l988 0c109,0 214,80 251,181l989 2738c3,-15 8,-31 13,-47l173 -523c44,-135 163,-165 287,-119 199,74 517,190 693,131 95,-32 97,-89 17,-142 -72,-48 -192,-89 -235,-108 -391,-166 -750,-355 -911,-784 -93,-251 -75,-486 21,-688 93,-198 262,-362 472,-477 309,-168 679,-217 1026,-196 263,16 524,71 771,141 52,15 97,25 138,65 24,-100 114,-172 217,-172zm-223 1941l0 -1485 -278 473c-67,114 -183,99 -287,53 -82,-36 -158,-68 -232,-89 -79,-23 -160,-36 -253,-32 -88,4 -195,68 -111,158 73,79 275,156 379,199 176,72 324,132 499,289 137,122 232,272 283,434zm-4107 -586l-129 478 264 0 -135 -478zm-5607 3932l-405 0c-98,0 -178,-80 -178,-178l0 -473c-47,161 -137,305 -257,419 -180,172 -429,279 -702,279 -274,0 -523,-107 -703,-279 -182,-173 -294,-413 -294,-678 0,-264 112,-504 294,-678 180,-171 429,-278 703,-278 273,0 522,107 702,279 120,114 210,258 257,419l0 -531c0,-98 80,-178 178,-178l985 0c98,0 178,80 178,178l0 288c0,49 -20,94 -53,126 -32,32 -76,52 -125,52l-402 0 0 87 402 0c49,0 93,20 125,52 33,33 53,77 53,126l0 264c0,48 -20,93 -53,125 -32,33 -76,53 -125,53l-402 0 0 348c0,98 -80,178 -178,178zm-1542 -1214c-141,0 -204,190 -204,304 0,115 63,305 204,305 140,0 203,-190 203,-305 0,-114 -63,-304 -203,-304zm8137 222c-290,0 -429,356 -429,599 0,244 139,600 429,600 290,0 429,-356 429,-600 0,-243 -139,-599 -429,-599z"/>
  <path class="fil15" d="M5301 5476l281 -479c27,-47 30,-93 -33,-111 -475,-140 -1009,-221 -1486,-42 -484,181 -792,629 -509,1148 172,317 542,467 861,599 77,32 160,74 198,137 46,77 11,172 -57,223 -44,33 -101,51 -157,53 -195,6 -373,-33 -541,-102l-114 -43c-45,-16 -88,-12 -107,45l-162 491c-21,62 -15,91 52,109 388,105 922,167 1314,75 305,-71 593,-261 699,-568 105,-305 25,-628 -221,-848 -208,-185 -376,-216 -628,-334 -56,-26 -123,-61 -176,-105 -196,-161 -69,-360 156,-370 202,-8 354,56 531,134 32,14 77,24 99,-12zm7175 -4064l744 0c55,0 99,45 99,99l0 899c0,54 45,99 99,99l805 0c54,0 99,-45 99,-99l0 -899c0,-54 45,-99 99,-99l745 0c54,0 99,44 99,99l0 2793c0,55 -45,99 -99,99l-745 0c-54,0 -99,-44 -99,-99l0 -892c0,-55 -45,-99 -99,-99l-805 0c-54,0 -99,44 -99,99l0 892c0,55 -44,99 -99,99l-744 0c-55,0 -100,-44 -100,-99l0 -2793c0,-55 45,-99 100,-99zm-10497 255c-404,271 -671,739 -671,1271 0,748 527,1370 1220,1493 366,66 914,-8 1257,-94 60,-15 64,-57 40,-106l-266 -535c-40,-80 -60,-77 -142,-64 -176,29 -355,75 -532,31 -313,-78 -546,-377 -546,-733 0,-424 304,-735 721,-757 141,-8 285,10 420,22 89,8 99,9 143,-70l291 -523c38,-68 40,-105 -40,-127 -191,-51 -375,-87 -552,-104 -458,-46 -956,37 -1343,296zm2303 -255l745 0c55,0 99,45 99,99l0 2065c0,55 45,99 99,99l866 0c55,0 100,45 100,99l0 530c0,55 -45,99 -100,99l-1809 0c-54,0 -99,-44 -99,-99l0 -2793c0,-55 45,-99 99,-99zm3284 0l988 0c55,0 115,45 135,99l1009 2793c20,55 -9,99 -64,99l-875 0c-55,0 -120,-43 -135,-99l-100 -382c-12,-34 -50,-62 -85,-62 -239,0 -499,0 -738,0 -35,0 -73,28 -85,62l-1 0 -116 370c-19,61 -71,111 -138,111l-856 0c-54,0 -83,-44 -64,-99l991 -2793c19,-55 79,-99 134,-99zm578 767l-271 1003c-13,35 6,63 40,63l473 0c35,0 53,-28 41,-63l-283 -1003zm3725 -24l299 -510c29,-50 32,-99 -35,-118 -505,-149 -1075,-235 -1582,-45 -516,193 -844,671 -543,1223 184,337 578,497 917,637 82,34 171,79 212,147 48,82 11,183 -61,237 -47,35 -108,54 -168,56 -207,7 -397,-34 -576,-108l-121 -46c-47,-17 -94,-13 -113,48l-173 523c-22,65 -16,96 55,116 413,112 982,177 1399,80 325,-76 631,-278 744,-606 112,-324 27,-668 -235,-902 -222,-198 -401,-230 -668,-355 -61,-29 -131,-66 -188,-113 -208,-171 -74,-383 166,-393 215,-9 377,59 566,143 33,15 82,25 105,-14zm-9735 4296l405 0c30,0 54,-24 54,-54l0 -418c0,-30 25,-54 54,-54l472 0c30,0 54,-25 54,-54l0 -264c0,-30 -24,-54 -54,-54l-472 0c-29,0 -54,-24 -54,-54l0 -227c0,-29 25,-54 54,-54l472 0c30,0 54,-24 54,-54l0 -288c0,-30 -24,-54 -54,-54l-985 0c-30,0 -54,24 -54,54l0 1521c0,30 24,54 54,54zm-1137 -1618c-483,0 -873,373 -873,832 0,460 390,833 873,833 482,0 872,-373 872,-833 0,-459 -390,-832 -872,-832zm0 404c-181,0 -328,192 -328,428 0,237 147,429 328,429 180,0 327,-192 327,-429 0,-236 -147,-428 -327,-428zm8137 -461c-814,0 -1474,630 -1474,1406 0,777 660,1407 1474,1407 815,0 1475,-630 1475,-1407 0,-776 -660,-1406 -1475,-1406zm0 683c-305,0 -552,324 -552,723 0,400 247,724 552,724 306,0 553,-324 553,-724 0,-399 -247,-723 -553,-723zm2332 2126l698 0c51,0 93,-42 93,-93l0 -1936c0,-51 42,-93 93,-93l644 0c51,0 93,-42 93,-93l0 -497c0,-51 -42,-93 -93,-93l-2358 0c-51,0 -92,42 -92,93l0 497c0,51 41,93 92,93l644 0c51,0 93,42 93,93l0 1936c0,51 42,93 93,93zm3571 -2109l281 -479c28,-47 30,-93 -32,-111 -476,-140 -1010,-221 -1487,-42 -484,181 -792,629 -509,1148 172,317 542,467 861,599 77,32 161,74 198,137 46,77 11,172 -57,223 -44,33 -101,51 -157,53 -194,6 -373,-33 -541,-102l-114 -43c-45,-16 -88,-12 -106,45l-163 491c-20,62 -15,91 52,109 388,105 923,167 1314,75 305,-71 593,-261 699,-568 105,-305 26,-628 -221,-848 -208,-185 -376,-216 -628,-334 -56,-26 -123,-61 -176,-105 -195,-161 -69,-360 156,-370 202,-8 354,56 531,134 32,14 78,24 99,-12zm-9142 -696l698 0c51,0 93,42 93,93l0 1936c0,51 42,93 93,93l812 0c51,0 93,42 93,93l0 497c0,51 -42,93 -93,93l-1696 0c-51,0 -93,-42 -93,-93l0 -2619c0,-51 42,-93 93,-93z"/>
  <path class="fil16" d="M19494 3114l0 12 1 -13 97 -242 35 3318 38 -3500 58 -144c0,0 284,246 521,450l18 1677 18 -1647c156,135 282,242 277,235 -3,-4 58,-6 153,-7l21 1996 21 -1997c205,-2 525,1 739,3l11 1030 11 -1030c120,1 201,2 201,2l127 117 11 970 10 -952 233 213 0 50 1 -49 223 203 0 8 0 -8 192 175 0 3185 -1366 685 -15 -712 -16 727 -358 180 -28 -2588 -28 2616 -259 130 -17 -1603 -18 1620 -244 123 -22 -2054 -23 2076 -433 217 -40 -3773 -40 3724 -331 -262 -11 -1903 -10 1887 -208 -165 -17 -1624 -17 1597 -435 -344 -9 -815 55 -117 -57 -23 -9 -888 -10 880 -443 -181 1392 -3465zm-951 3841l-8 737 -248 -197 256 -540z"/>
  <g id="_1604866860192">
   <path class="fil17" d="M19593 5119c-189,279 -298,605 -467,898 -148,257 -291,505 -602,585 -296,76 -685,-72 -841,-340 -86,-148 -101,-329 -57,-537 -115,2 -216,-9 -304,-39 -291,-96 -439,-395 -423,-688 11,-190 95,-368 234,-503 299,-291 768,-324 1160,-267 -378,-214 -784,-552 -668,-1039 93,-393 534,-511 873,-361 -20,-292 168,-486 442,-543 256,-53 534,44 731,211 335,287 408,802 383,1216 231,-402 499,-657 813,-731 256,-61 566,18 768,194 197,172 269,437 116,665 187,27 352,92 462,225 214,256 161,578 -61,794 -312,303 -868,242 -1267,222 608,251 1077,568 1147,1071 54,386 -129,744 -522,854 -220,62 -452,8 -621,-146 -109,265 -342,418 -613,436 -195,12 -375,-37 -514,-137 -430,-310 -266,-885 -171,-1314 48,-216 92,-466 100,-663 -76,417 -187,802 -331,1133 -204,467 -460,849 -876,1150 -74,53 -166,59 -241,7 -93,-63 -142,-221 -131,-330 8,-72 49,-118 115,-141 116,-40 232,-98 348,-177 550,-374 803,-1102 1018,-1705z"/>
   <g>
    <path class="fil18" d="M19703 4976c-76,417 -187,820 -343,1203 -210,519 -488,902 -933,1234 -161,120 -246,-116 -245,-259 1,-50 6,-101 56,-120 358,-129 628,-371 841,-685 250,-370 455,-954 624,-1373z"/>
    <path class="fil19" d="M18453 7136c593,-321 892,-1033 1123,-1837 -142,363 -307,768 -497,1050 -213,314 -483,556 -841,685 -18,7 -30,18 -38,31 145,30 224,137 194,353 46,-53 68,-127 40,-226 -9,-29 -13,-38 19,-56z"/>
    <path class="fil20" d="M19613 5395c-230,736 -507,1437 -1112,1885 -40,29 -64,74 -62,124 438,-330 713,-711 921,-1225 103,-253 187,-515 253,-784z"/>
   </g>
   <g>
    <path class="fil21" d="M19624 4855c-630,-31 -1184,114 -1626,513 -102,92 -209,188 -316,311 -210,-11 -353,-66 -454,-149 -187,-152 -243,-429 -172,-653 30,-95 72,-184 131,-256 291,-351 850,-374 1263,-296 391,75 783,272 1174,530z"/>
    <path class="fil22" d="M18963 4600c-377,-88 -903,-158 -1275,-26 -209,74 -378,199 -510,378 -13,18 -35,39 -59,29 -22,-8 -24,-32 -17,-53 85,-269 265,-434 531,-518 403,-127 851,-65 1334,146 47,21 48,57 -4,44z"/>
   </g>
   <g>
    <path class="fil23" d="M19624 4946c-203,263 -330,474 -475,754 -78,152 -154,278 -248,417 -195,291 -435,442 -771,343 -342,-101 -495,-450 -448,-781 525,-623 1151,-785 1942,-733z"/>
    <path class="fil24" d="M18890 5648c146,-201 276,-415 411,-624 -496,1 -922,142 -1314,353 -106,86 -207,186 -305,302 -10,66 -11,132 -5,198 45,244 356,373 579,317 275,-68 472,-324 634,-546z"/>
    <path class="fil25" d="M18721 5179c-273,37 -602,136 -794,362 -25,30 -43,62 -45,100 -3,57 33,86 80,82 27,-2 54,-17 77,-37 219,-195 417,-361 682,-507z"/>
   </g>
   <g>
    <path class="fil26" d="M19670 4805c-253,-172 -514,-302 -780,-428 -373,-177 -978,-431 -1111,-859 -61,-198 -13,-417 135,-550 170,-154 438,-136 646,-88 345,292 653,714 849,1123 123,257 217,522 261,802z"/>
    <path class="fil27" d="M17914 2968c-116,104 -171,261 -160,419 35,304 1178,906 1525,1070 209,99 191,20 153,-144 -80,-338 -197,-637 -367,-882 -155,-212 -318,-364 -505,-551 -208,-48 -476,-66 -646,88z"/>
    <path class="fil28" d="M17826 3206c54,-119 131,-205 227,-258 114,-62 264,-61 393,-15 183,66 367,293 474,448 42,61 -11,62 -47,25 -126,-128 -271,-222 -430,-289 -117,-49 -229,-68 -339,-29 -82,29 -171,93 -230,156 -35,37 -69,8 -48,-38z"/>
   </g>
   <g>
    <path class="fil29" d="M19751 4738c-143,-585 -378,-989 -650,-1317l-541 -541c-6,-127 26,-238 95,-334 210,-292 682,-208 931,-9 455,364 462,1048 310,1560 -65,221 -91,423 -145,641z"/>
    <path class="fil30" d="M19337 3744c142,201 490,568 612,134 88,-475 29,-1027 -363,-1341 -249,-199 -721,-283 -931,9 -69,96 -101,207 -95,334 115,97 226,209 330,330 182,182 306,312 447,534z"/>
    <path class="fil31" d="M18643 2756c33,-100 87,-182 164,-244 243,-197 588,-84 785,124 142,149 217,352 257,569 7,40 -20,61 -38,31 -93,-154 -198,-290 -322,-412 -137,-135 -309,-195 -496,-173 -118,15 -203,69 -285,151 -65,67 -89,22 -65,-46z"/>
   </g>
   <g>
    <path class="fil32" d="M19786 4815c93,-577 270,-992 484,-1288 194,-270 477,-475 807,-476 315,-1 693,192 682,552 -3,92 -30,172 -71,245 -1202,417 -1593,698 -1902,967z"/>
    <path class="fil33" d="M19912 4267c-34,153 -69,306 -95,471 639,-523 1108,-636 1527,-768 14,-6 28,-12 43,-17 99,-38 200,-71 301,-105 41,-73 68,-153 71,-245 11,-360 -367,-553 -682,-552 -330,1 -613,206 -807,476 -139,192 -263,435 -358,740z"/>
    <path class="fil34" d="M20139 3900c175,-356 361,-544 551,-655 266,-155 745,-141 905,152 46,84 62,184 68,288 2,44 -23,108 -67,56 -88,-107 -195,-190 -322,-247 -231,-102 -485,-37 -692,92 -149,92 -284,219 -403,347 -34,37 -62,11 -40,-33z"/>
   </g>
   <g>
    <path class="fil35" d="M19825 4907c436,-376 1007,-740 1562,-954 99,-38 200,-71 301,-105 574,158 758,778 194,1028 -239,105 -570,108 -811,93 -422,-25 -845,-51 -1246,-62z"/>
    <path class="fil36" d="M20394 4603c-50,45 -75,100 13,108 324,28 1217,88 1502,-11 189,-66 307,-175 307,-355 -40,-212 -233,-416 -528,-497 -88,30 -171,60 -251,89 -321,118 -798,443 -1043,666z"/>
    <path class="fil37" d="M21282 4089c138,-78 339,-171 501,-135 140,31 242,135 337,257 33,42 -12,62 -41,36 -79,-72 -160,-127 -256,-159 -151,-51 -357,4 -509,47 -47,12 -94,-11 -32,-46z"/>
   </g>
   <g>
    <path class="fil38" d="M19873 4958c617,37 1150,184 1561,491 306,246 504,523 486,859 -14,271 -155,491 -392,590 -216,90 -465,47 -643,-106 -37,-324 -156,-801 -329,-1082 -175,-284 -414,-528 -683,-752z"/>
    <path class="fil39" d="M20556 5710c131,213 231,538 288,824 2,10 4,20 6,29 515,92 1144,-191 878,-821 -79,-103 -179,-200 -294,-293 -411,-307 -944,-454 -1561,-491 269,224 508,468 683,752z"/>
    <path class="fil40" d="M20447 5113c421,78 802,246 1108,580 46,51 -6,124 -66,76 -310,-246 -665,-453 -1060,-622 -28,-12 -30,-39 18,-34z"/>
   </g>
   <g>
    <path class="fil41" d="M19786 5006c-6,139 -9,340 -34,555 -38,320 -115,637 -117,961 -1,201 47,392 205,525 176,148 443,185 655,100 156,-63 289,-187 390,-355 -17,-161 -49,-319 -98,-471 -173,-538 -573,-963 -1001,-1315z"/>
    <path class="fil42" d="M20787 6321c-173,-538 -573,-963 -1001,-1315 23,40 30,111 44,241 37,353 -109,941 -17,1280 127,467 779,287 1037,37 -2,-10 -4,-20 -6,-30 -16,-72 -34,-143 -57,-213z"/>
    <path class="fil43" d="M20089 5334c113,123 442,472 417,653 -9,64 -53,110 -125,107 -144,-6 -148,-240 -167,-337 -33,-156 -85,-289 -148,-408 -9,-18 10,-29 23,-15z"/>
   </g>
  </g>
 </g>
</svg>
