<svg width="24" height="24" viewBox="0 0 24 24" fill="none" xmlns="http://www.w3.org/2000/svg">
<path d="M9.62162 8.35811H5.01351V10.2905H7.22303L5.21627 15.6419H7.31421L9.56093 9.68008L9.62162 9.49799V8.35811Z" fill="#F5BC89"/>
<path d="M14.6385 8.35811H10.0304V10.2905H12.2399L10.2332 15.6419H12.3311L14.5778 9.68008L14.6385 9.49799V8.35811Z" fill="#F5BC89"/>
<path d="M19.6554 8.35811H15.0473V10.2905H17.2568L15.2501 15.6419H17.348L19.5947 9.68008L19.6554 9.49799V8.35811Z" fill="#F5BC89"/>
<path fill-rule="evenodd" clip-rule="evenodd" d="M20.3243 1H3.67568V5.01351H1V18.9865H3.67568V23H20.3243C20.3243 23 20.3243 21.5135 20.3243 21.0676V18.9865H23V5.01351H20.3243V1ZM5.60811 5.01351V2.93243H18.3919V5.01351H5.60811ZM2.93243 17.0541V6.94595H21.0676V17.0541H2.93243ZM5.60811 21.0676V18.9865H18.3919V21.0676H5.60811Z" fill="#F5BC89"/>
</svg>
