<svg width="22" height="22" viewBox="0 0 22 22" fill="none" xmlns="http://www.w3.org/2000/svg">
<circle cx="11" cy="11" r="11" fill="white"/>
<g clip-path="url(#clip0_21718_9725)">
<path d="M10.9989 2.47388L10.8848 2.86242V14.1361L10.9989 14.2503L16.2223 11.157L10.9989 2.47388Z" fill="#343434"/>
<path d="M10.9989 2.47388L5.77539 11.157L10.9989 14.2503V8.77832V2.47388Z" fill="#8C8C8C"/>
<path d="M10.9979 15.2413L10.9336 15.32V19.3358L10.9979 19.524L16.2245 12.1497L10.9979 15.2413Z" fill="#3C3C3B"/>
<path d="M10.9989 19.524V15.2413L5.77539 12.1497L10.9989 19.524Z" fill="#8C8C8C"/>
<path d="M11 14.2505L16.2233 11.1572L11 8.77856V14.2505Z" fill="#141414"/>
<path d="M5.77539 11.1572L10.9989 14.2505V8.77856L5.77539 11.1572Z" fill="#393939"/>
</g>
<defs>
<clipPath id="clip0_21718_9725">
<rect width="10.45" height="17.05" fill="white" transform="translate(5.77539 2.47388)"/>
</clipPath>
</defs>
</svg>
