<svg width="32" height="32" viewBox="0 0 32 32" fill="none" xmlns="http://www.w3.org/2000/svg">
<path d="M16.0012 4.68256C19.687 4.68256 20.1235 4.69658 21.5791 4.76299C22.925 4.82442 23.6559 5.0493 24.1423 5.23828C24.7866 5.4887 25.2465 5.78788 25.7295 6.27089C26.2125 6.75391 26.5117 7.2138 26.7621 7.85808C26.9511 8.34454 27.176 9.07545 27.2374 10.4213C27.3038 11.8769 27.3179 12.3134 27.3179 15.9993C27.3179 19.6851 27.3038 20.1216 27.2374 21.5772C27.176 22.9231 26.9511 23.654 26.7621 24.1404C26.5117 24.7847 26.2125 25.2446 25.7295 25.7276C25.2465 26.2106 24.7866 26.5098 24.1423 26.7602C23.6559 26.9492 22.925 27.1741 21.5791 27.2355C20.1238 27.3019 19.6872 27.316 16.0012 27.316C12.3151 27.316 11.8786 27.3019 10.4232 27.2355C9.07735 27.1741 8.34644 26.9492 7.86003 26.7602C7.2157 26.5098 6.75581 26.2106 6.27279 25.7276C5.78977 25.2446 5.49059 24.7847 5.24024 24.1404C5.0512 23.654 4.82632 22.9231 4.76489 21.5773C4.69848 20.1216 4.68445 19.6851 4.68445 15.9993C4.68445 12.3134 4.69848 11.8769 4.76489 10.4213C4.82632 9.07545 5.0512 8.34454 5.24024 7.85808C5.49059 7.2138 5.78977 6.75391 6.27279 6.27089C6.75581 5.78788 7.2157 5.4887 7.86003 5.23828C8.34644 5.0493 9.07735 4.82442 10.4232 4.76299C11.8788 4.69658 12.3153 4.68256 16.0012 4.68256ZM16.0012 2.19531C12.2522 2.19531 11.7822 2.2112 10.3098 2.27838C8.84053 2.34545 7.83713 2.57877 6.95904 2.92003C6.05131 3.2728 5.2815 3.7448 4.5141 4.5122C3.7467 5.2796 3.27469 6.04941 2.92193 6.95714C2.58066 7.83523 2.34735 8.83863 2.28028 10.308C2.2131 11.7802 2.19727 12.2503 2.19727 15.9993C2.19727 19.7482 2.2131 20.2183 2.28028 21.6906C2.34735 23.1599 2.58066 24.1633 2.92193 25.0414C3.27469 25.9491 3.7467 26.7189 4.5141 27.4863C5.2815 28.2537 6.05131 28.7257 6.95904 29.0785C7.83713 29.4198 8.84053 29.6531 10.3098 29.7201C11.7822 29.7873 12.2522 29.8032 16.0012 29.8032C19.7501 29.8032 20.2202 29.7873 21.6925 29.7201C23.1618 29.6531 24.1652 29.4198 25.0433 29.0785C25.951 28.7257 26.7208 28.2537 27.4882 27.4863C28.2556 26.7189 28.7276 25.9491 29.0804 25.0414C29.4217 24.1633 29.655 23.1599 29.722 21.6906C29.7892 20.2183 29.8051 19.7482 29.8051 15.9993C29.8051 12.2503 29.7892 11.7802 29.722 10.308C29.655 8.83863 29.4217 7.83523 29.0804 6.95714C28.7276 6.04941 28.2556 5.2796 27.4882 4.5122C26.7208 3.7448 25.951 3.2728 25.0433 2.92003C24.1652 2.57877 23.1618 2.34545 21.6925 2.27838C20.2202 2.2112 19.7501 2.19531 16.0012 2.19531ZM16.0012 8.91074C12.0863 8.91074 8.91264 12.0844 8.91264 15.9993C8.91264 19.9141 12.0863 23.0878 16.0012 23.0878C19.916 23.0878 23.0897 19.9141 23.0897 15.9993C23.0897 12.0844 19.916 8.91074 16.0012 8.91074ZM16.0012 20.6006C13.4599 20.6006 11.3998 18.5405 11.3998 15.9993C11.3998 13.458 13.4599 11.3979 16.0012 11.3979C18.5424 11.3979 20.6025 13.458 20.6025 15.9993C20.6025 18.5405 18.5424 20.6006 16.0012 20.6006ZM25.0262 8.63068C25.0262 9.54554 24.2846 10.2872 23.3697 10.2872C22.4549 10.2872 21.7132 9.54554 21.7132 8.63068C21.7132 7.71583 22.4549 6.97424 23.3697 6.97424C24.2846 6.97424 25.0262 7.71583 25.0262 8.63068Z" fill="#C08456"/>
</svg>
