<svg width="24" height="24" viewBox="0 0 24 24" fill="none" xmlns="http://www.w3.org/2000/svg">
<path fill-rule="evenodd" clip-rule="evenodd" d="M6.30357 4.28285C6.30357 2.46993 7.77679 1 9.54464 1H10.6741L12 2.32294L13.0312 1.24499L13.2768 1H14.4062C16.1741 1 17.6473 2.46993 17.6473 4.28285C17.6473 4.91982 17.5 5.55679 17.2054 6.14477L16.3705 7.6637L17.8438 6.83073C18.433 6.48775 19.0714 6.34076 19.7098 6.34076C21.5268 6.34076 22.9509 7.76169 22.9509 9.57461V10.7016L21.6741 11.9755L23 13.2984V14.4254C23 16.1893 21.5268 17.6592 19.7098 17.6592C19.0714 17.6592 18.433 17.5122 17.8438 17.1693L16.3214 16.3363L17.1562 17.8552C17.5 18.4432 17.6473 19.0802 17.6473 19.7171C17.6473 21.5301 16.1741 23 14.4062 23H13.2768L13.0312 22.755L12 21.6771L10.9196 22.755L10.6741 22.951H9.54464C7.77679 22.951 6.30357 21.5301 6.30357 19.7171C6.30357 19.0802 6.45089 18.4432 6.79464 17.8552L7.62946 16.3363L6.10714 17.1693C5.51786 17.5122 4.87946 17.6592 4.24107 17.6592C2.42411 17.6592 1 16.1893 1 14.4254V13.6414L1.19643 13.0535L2.27679 11.9755L1.19643 10.9465L1 10.7016V9.57461C1 7.76169 2.42411 6.34076 4.24107 6.34076C4.87946 6.34076 5.51786 6.48775 6.10714 6.83073L7.62946 7.6637L6.79464 6.14477C6.45089 5.55679 6.30357 4.91982 6.30357 4.28285ZM9.54464 2.56793C8.61161 2.56793 7.875 3.35189 7.875 4.28285C7.875 4.67483 7.97321 5.01782 8.16964 5.3608L10.3304 9.28062L9.25 10.3096L5.32143 8.20267C5.02679 8.00668 4.63393 7.90869 4.24107 7.90869C3.30804 7.90869 2.57143 8.64365 2.57143 9.57461V10.0646L4.48661 11.9755L3.94643 12.5635L2.57143 13.9354V14.4254C2.57143 15.3563 3.30804 16.0913 4.24107 16.0913C4.63393 16.0913 5.02679 15.9933 5.32143 15.7973L9.25 13.6414L10.3304 14.7194L8.16964 18.6392C7.97321 18.9332 7.875 19.3252 7.875 19.7171C7.875 20.6481 8.61161 21.3831 9.54464 21.3831H10.0357L11.4107 20.0111L12 19.4722L13.9152 21.3831H14.4062C15.3393 21.3831 16.0759 20.6481 16.0759 19.7171C16.0759 19.3252 15.9777 18.9332 15.8304 18.6392L13.6696 14.7194L14.7009 13.6414L18.6295 15.7973C18.9732 15.9933 19.317 16.0913 19.7098 16.0913C20.6429 16.0913 21.4286 15.3563 21.4286 14.4254V13.9354L20.0045 12.5635L19.4643 11.9755L20.0045 11.4365L21.4286 10.0646V9.57461C21.4286 8.64365 20.6429 7.90869 19.7098 7.90869C19.317 7.90869 18.9732 8.00668 18.6295 8.20267L14.7991 10.3096L13.7188 9.28062L15.8304 5.3608C15.9777 5.01782 16.0759 4.67483 16.0759 4.28285C16.0759 3.35189 15.3393 2.56793 14.4062 2.56793H13.9152L12.5402 3.98886L12 4.52784L11.4107 3.98886L10.0357 2.56793H9.54464Z" fill="#F5BC89"/>
</svg>
