<svg width="24" height="24" viewBox="0 0 24 24" fill="none" xmlns="http://www.w3.org/2000/svg">
<path d="M23.0005 13.5C23.0005 8.35499 16.0215 2.37199 13.8815 0.660989C13.3484 0.231961 12.6847 -0.00195312 12.0005 -0.00195312C11.3162 -0.00195313 10.6525 0.231961 10.1195 0.660989C7.98045 2.37199 1.00045 8.35399 1.00045 13.5C0.938689 15.1564 1.53512 16.7699 2.65941 17.9879C3.7837 19.2059 5.34441 19.9293 7.00045 20C8.47321 19.9643 9.87763 19.3714 10.9305 18.341C10.7505 20.805 10.1155 22 8.00045 22H5.00045V24H19.0005V22H16.0005C13.8855 22 13.2505 20.8 13.0705 18.341C14.1233 19.3714 15.5277 19.9643 17.0005 20C18.6565 19.9293 20.2172 19.2059 21.3415 17.9879C22.4658 16.7699 23.0622 15.1564 23.0005 13.5ZM11.9715 22C11.9805 21.984 11.9915 21.969 12.0005 21.953C12.0095 21.969 12.0205 21.984 12.0295 22H11.9715ZM12.8955 14.916L12.0005 13.127L11.1055 14.916C11.0905 14.947 9.49445 18 7.00045 18C5.87518 17.9286 4.82361 17.4158 4.07451 16.573C3.32542 15.7303 2.9394 14.6259 3.00045 13.5C3.00045 10.116 7.50845 5.31099 11.3685 2.22399C11.5469 2.07844 11.7702 1.99896 12.0005 1.99896C12.2307 1.99896 12.454 2.07844 12.6325 2.22399C16.4925 5.31099 21.0005 10.117 21.0005 13.5C21.0615 14.6259 20.6755 15.7303 19.9264 16.573C19.1773 17.4158 18.1257 17.9286 17.0005 18C14.4865 18 12.9095 14.944 12.9005 14.916H12.8955Z" fill="#F5BC89"/>
</svg>
