<svg width="62" height="26" viewBox="0 0 62 26" fill="none" xmlns="http://www.w3.org/2000/svg">
<g clip-path="url(#clip0_18835_10432)">
<path d="M43.9686 21.2655L41.36 16.7308C40.7285 15.6464 40.1471 15.0165 39.6152 14.8413H44.0848C43.9297 14.8632 43.8024 14.9344 43.7028 15.0549C43.6142 15.1644 43.5697 15.3068 43.5697 15.4821C43.5697 15.7559 43.7138 16.1448 44.0017 16.6486L45.5801 19.3596L46.9926 16.9443C47.3912 16.2543 47.5907 15.7614 47.5907 15.4656C47.5907 15.2794 47.5408 15.137 47.4411 15.0385C47.3525 14.9289 47.2473 14.8632 47.1253 14.8413H50.7309C50.5758 14.8742 50.3323 15.0713 50 15.4328C49.6676 15.7833 49.3463 16.2269 49.0363 16.7636L46.3778 21.1833V23.9436C46.3778 24.3598 46.4165 24.6993 46.494 24.9622C46.5826 25.2251 46.6878 25.4223 46.8098 25.5537C46.9426 25.6852 47.0756 25.7618 47.2084 25.7837H43.1046C43.2484 25.7618 43.3815 25.6906 43.5032 25.5701C43.6362 25.4387 43.7469 25.2415 43.8355 24.9787C43.9242 24.7158 43.9686 24.3707 43.9686 23.9436V21.2655Z" fill="white"/>
<path d="M34.9855 14.8413H36.9462L40.6014 23.73C41.0668 24.9129 41.5929 25.5975 42.1798 25.7837H37.7105C37.8877 25.7618 38.0315 25.6852 38.1425 25.5537C38.2642 25.4223 38.3252 25.2415 38.3252 25.0115C38.3252 24.8472 38.1257 24.2393 37.7271 23.1878H33.4902C33.1468 24.1188 32.9751 24.6993 32.9751 24.9294C32.9751 25.1922 33.0416 25.3949 33.1744 25.5373C33.3185 25.6797 33.4791 25.7618 33.6564 25.7837H29.9346C30.156 25.7509 30.4052 25.5537 30.6821 25.1922C30.9703 24.8308 31.2416 24.3269 31.4964 23.6807L34.9855 14.8413ZM37.162 21.7584L35.5836 17.7166L34.0384 21.7584H37.162Z" fill="white"/>
<path d="M22.3396 16.6979C22.3396 15.6354 22.0571 15.0165 21.4922 14.8413H25.5131C25.2694 14.8851 25.0645 15.0658 24.8983 15.3835C24.7322 15.6902 24.6491 16.1283 24.6491 16.6979V24.2722H26.8922C27.7562 24.2722 28.3431 24.1845 28.6534 24.0093C28.9747 23.834 29.2846 23.478 29.5839 22.9413L29.1353 25.7837H21.5752C21.7968 25.7399 21.9796 25.5428 22.1236 25.1922C22.2675 24.8417 22.3396 24.3598 22.3396 23.7464V16.6979Z" fill="white"/>
<path d="M12.9568 16.7308C12.9568 16.216 12.8682 15.7943 12.691 15.4656C12.5249 15.1261 12.2867 14.918 11.9766 14.8413H17.0775C18.163 14.8413 19.038 15.159 19.7027 15.7943C20.3783 16.4186 20.7162 17.2127 20.7162 18.1766C20.7162 19.2501 20.3451 20.1154 19.603 20.7726C18.8608 21.4298 17.886 21.7584 16.6787 21.7584C16.147 21.7584 15.6541 21.6926 15.1999 21.5612V23.96C15.1999 24.3762 15.2498 24.7158 15.3494 24.9787C15.4491 25.2415 15.571 25.4387 15.715 25.5701C15.859 25.6906 16.0085 25.7618 16.1636 25.7837H12.0929C12.3587 25.7509 12.5692 25.5756 12.7242 25.258C12.8793 24.9294 12.9568 24.4967 12.9568 23.96V16.7308ZM15.1999 20.0496C15.5876 20.1701 15.9975 20.2304 16.4295 20.2304C17.0276 20.2304 17.4873 20.0496 17.8085 19.6882C18.1298 19.3158 18.2904 18.8338 18.2904 18.2423C18.2904 17.6837 18.1187 17.2291 17.7753 16.8786C17.4319 16.5172 16.9445 16.3364 16.3131 16.3364H15.1999V20.0496Z" fill="white"/>
<path d="M51.3393 3.50662C51.3393 3.17803 51.2562 2.88776 51.09 2.63582C50.9349 2.3839 50.7301 2.15935 50.4753 1.96219C50.2315 1.76503 50.0154 1.63359 49.8271 1.56787H53.3496L58.5667 8.0249V3.37519C58.5667 2.98087 58.5225 2.6632 58.4339 2.42223C58.3564 2.18126 58.2622 2.00053 58.1515 1.88004C58.0406 1.7486 57.8744 1.64455 57.653 1.56787H61.2586C61.0038 1.61168 60.7932 1.79241 60.627 2.11006C60.4722 2.42771 60.3946 2.84941 60.3946 3.37519V12.5103H58.6666C58.2678 11.5245 57.6751 10.5606 56.8887 9.61859L53.1835 5.14963V10.7194C53.1835 11.1247 53.2334 11.4588 53.3331 11.7217C53.4327 11.9736 53.56 12.1653 53.7151 12.2967C53.8813 12.4172 54.0364 12.4884 54.1805 12.5103H50.4918C50.6359 12.4884 50.7742 12.4117 50.9073 12.2803C51.04 12.1488 51.1452 11.9572 51.2228 11.7052C51.3004 11.4533 51.3393 11.1247 51.3393 10.7194V3.50662Z" fill="white"/>
<path d="M26.2799 12.7573C24.6737 12.7573 23.3666 12.2425 22.3587 11.2129C21.3617 10.1723 20.8633 8.83605 20.8633 7.20398C20.8633 6.11959 21.107 5.12832 21.5944 4.23015C22.0928 3.32101 22.7907 2.60905 23.6879 2.09424C24.5851 1.57943 25.5765 1.32202 26.662 1.32202C28.2572 1.32202 29.5476 1.84231 30.5334 2.88288C31.5304 3.91251 32.0286 5.24334 32.0286 6.87539C32.0286 8.5403 31.4915 9.93686 30.4171 11.0651C29.3425 12.1932 27.9635 12.7573 26.2799 12.7573ZM26.662 11.0651C27.537 11.0651 28.2461 10.7255 28.7888 10.0464C29.3425 9.35633 29.6197 8.44719 29.6197 7.319C29.6197 6.02649 29.3149 4.98046 28.7057 4.18085C28.0965 3.38125 27.2767 2.98147 26.2466 2.98147C25.3716 2.98147 24.6571 3.31555 24.1033 3.98369C23.5605 4.6409 23.2891 5.54455 23.2891 6.69466C23.2891 8.02001 23.5882 9.0825 24.1863 9.88208C24.7845 10.6707 25.6097 11.0651 26.662 11.0651Z" fill="white"/>
<path d="M11.6258 3.47375C11.6258 2.42223 11.288 1.78694 10.6123 1.56787H15.4806C16.6658 1.56787 17.6129 1.87457 18.3218 2.48795C19.0418 3.10135 19.4018 3.86261 19.4018 4.77172C19.4018 5.53846 19.1581 6.20664 18.6707 6.77619C18.1944 7.34578 17.5353 7.68534 16.6935 7.79487C16.9815 7.97011 17.2584 8.28776 17.5243 8.7478L19.003 11.278C19.2135 11.6505 19.4516 11.9462 19.7175 12.1653C19.9944 12.3843 20.2381 12.4993 20.4486 12.5103H17.0756L15.2313 9.14214C15.032 8.76972 14.8547 8.52326 14.6996 8.40278C14.5446 8.27135 14.3563 8.20562 14.1347 8.20562H13.9021V10.6866C13.9021 11.1028 13.9464 11.4423 14.035 11.7052C14.1237 11.9681 14.2289 12.1653 14.3507 12.2967C14.4836 12.4172 14.6166 12.4884 14.7495 12.5103H10.7452C10.8892 12.4884 11.0277 12.4172 11.1606 12.2967C11.3046 12.1653 11.4154 11.9681 11.4929 11.7052C11.5815 11.4314 11.6258 11.0918 11.6258 10.6866V3.47375ZM15.0486 6.72692C15.6689 6.72692 16.1507 6.55714 16.4941 6.21758C16.8486 5.87802 17.0258 5.41798 17.0258 4.83745C17.0258 4.32265 16.843 3.90093 16.4775 3.57234C16.123 3.23278 15.6412 3.063 15.032 3.063H13.8855V6.72692H15.0486Z" fill="white"/>
<path d="M9.5545 11.2293C9.16681 11.6784 8.64618 12.0454 7.99266 12.3302C7.35019 12.615 6.66344 12.7573 5.93236 12.7573C4.22652 12.7573 2.86407 12.248 1.845 11.2293C0.837005 10.1997 0.333008 8.87986 0.333008 7.2697C0.333008 6.17438 0.582237 5.17213 1.0807 4.26301C1.57915 3.34292 2.28254 2.62548 3.19083 2.11067C4.11022 1.5849 5.16805 1.32202 6.36436 1.32202C7.54957 1.32202 8.54095 1.53561 9.3385 1.9628V5.11737C9.08372 4.47112 8.69051 3.95083 8.15881 3.55651C7.62711 3.1622 6.96805 2.96504 6.18159 2.96504C5.19576 2.96504 4.38714 3.34292 3.75577 4.09869C3.13546 4.84354 2.8253 5.79647 2.8253 6.95755C2.8253 8.1405 3.13546 9.11534 3.75577 9.88208C4.38714 10.6488 5.21238 11.0322 6.23144 11.0322C6.82959 11.0322 7.42773 10.8843 8.0259 10.5886C8.62404 10.2819 9.13357 9.86565 9.5545 9.3399V11.2293Z" fill="white"/>
<path d="M37.9464 4.67763L32.8652 2.535L34.3008 10.1656C34.3952 10.6675 34.4428 11.1769 34.4428 11.6874V12.48H47.4579V11.8747C47.4579 11.2403 47.5313 10.608 47.6764 9.99011L49.4299 2.535L44.3051 4.67763L41.1476 0L37.9464 4.67763Z" fill="url(#paint0_linear_18835_10432)"/>
<path d="M36.1514 10.8866L41.0913 2.33276L45.7962 10.8866H36.1514Z" fill="url(#paint1_linear_18835_10432)"/>
<path d="M36.1514 10.8868L47.2986 4.802L45.7962 10.8868H36.1514Z" fill="url(#paint2_linear_18835_10432)"/>
<path d="M45.7969 10.8865L34.8848 4.80176L36.1518 10.8865H45.7969Z" fill="url(#paint3_linear_18835_10432)"/>
</g>
<defs>
<linearGradient id="paint0_linear_18835_10432" x1="41.1477" y1="0" x2="41.1477" y2="12.48" gradientUnits="userSpaceOnUse">
<stop stop-color="#F9F295"/>
<stop offset="0.324648" stop-color="#DBB057"/>
<stop offset="0.531603" stop-color="#D9AC53"/>
<stop offset="0.75" stop-color="#FFECA9"/>
<stop offset="0.896537" stop-color="#C9A65E"/>
<stop offset="1" stop-color="#B88A44"/>
</linearGradient>
<linearGradient id="paint1_linear_18835_10432" x1="40.9739" y1="2.33276" x2="40.9739" y2="10.8866" gradientUnits="userSpaceOnUse">
<stop stop-color="#9C7529"/>
<stop offset="1" stop-color="#D8AD51" stop-opacity="0"/>
</linearGradient>
<linearGradient id="paint2_linear_18835_10432" x1="41.7251" y1="4.802" x2="41.7048" y2="13.1204" gradientUnits="userSpaceOnUse">
<stop stop-color="#9C7529"/>
<stop offset="1" stop-color="#D8AD51" stop-opacity="0"/>
</linearGradient>
<linearGradient id="paint3_linear_18835_10432" x1="40.341" y1="4.80176" x2="40.3202" y2="13.1201" gradientUnits="userSpaceOnUse">
<stop stop-color="#9C7529"/>
<stop offset="1" stop-color="#D8AD51" stop-opacity="0"/>
</linearGradient>
<clipPath id="clip0_18835_10432">
<rect width="61" height="26" fill="white" transform="translate(0.333008)"/>
</clipPath>
</defs>
</svg>
