<svg width="160" height="22" viewBox="0 0 160 22" fill="none" xmlns="http://www.w3.org/2000/svg">
<g clip-path="url(#clip0_18835_10419)">
<path d="M149.245 13.4458L145.097 6.10729C144.093 4.35243 143.168 3.33317 142.322 3.04956H149.43C149.184 3.08501 148.981 3.20023 148.822 3.39521C148.682 3.57247 148.611 3.80291 148.611 4.08653C148.611 4.52967 148.84 5.15893 149.298 5.97433L151.809 10.3615L154.054 6.45292C154.689 5.33621 155.006 4.53852 155.006 4.05993C155.006 3.75859 154.926 3.52816 154.768 3.36862C154.627 3.19137 154.46 3.08501 154.266 3.04956H160C159.753 3.10274 159.366 3.4218 158.837 4.00677C158.309 4.57398 157.798 5.2919 157.305 6.16046L153.077 13.3129V17.7798C153.077 18.4534 153.139 19.0029 153.262 19.4283C153.403 19.8538 153.57 20.1728 153.764 20.3855C153.975 20.5982 154.187 20.7223 154.398 20.7578H147.871C148.1 20.7223 148.312 20.6071 148.506 20.4121C148.717 20.1994 148.893 19.8803 149.034 19.4549C149.175 19.0295 149.245 18.4711 149.245 17.7798V13.4458Z" fill="white"/>
<path d="M134.961 3.0498H138.08L143.893 17.4344C144.633 19.3488 145.469 20.4567 146.403 20.758H139.295C139.577 20.7226 139.806 20.5985 139.982 20.3858C140.176 20.1731 140.273 19.8806 140.273 19.5083C140.273 19.2424 139.955 18.2587 139.321 16.557H132.583C132.037 18.0637 131.764 19.0031 131.764 19.3754C131.764 19.8008 131.87 20.1287 132.081 20.3592C132.31 20.5896 132.566 20.7226 132.848 20.758H126.929C127.281 20.7048 127.677 20.3858 128.118 19.8008C128.576 19.2158 129.007 18.4004 129.413 17.3546L134.961 3.0498ZM138.423 14.2437L135.913 7.70287L133.455 14.2437H138.423Z" fill="white"/>
<path d="M114.853 6.05409C114.853 4.33468 114.403 3.33317 113.505 3.04956H119.899C119.512 3.12046 119.186 3.41294 118.922 3.92699C118.658 4.4233 118.525 5.13237 118.525 6.05409V18.3116H122.093C123.467 18.3116 124.4 18.1698 124.893 17.8862C125.404 17.6026 125.898 17.0265 126.373 16.1579L125.66 20.7578H113.637C113.989 20.6869 114.28 20.3678 114.509 19.8006C114.738 19.2333 114.853 18.4534 114.853 17.4607V6.05409Z" fill="white"/>
<path d="M99.9252 6.10754C99.9252 5.2744 99.7843 4.59197 99.5026 4.06018C99.2382 3.51068 98.8594 3.17388 98.3662 3.0498H106.478C108.205 3.0498 109.596 3.56385 110.653 4.59197C111.728 5.60235 112.265 6.88748 112.265 8.44736C112.265 10.1845 111.675 11.5848 110.495 12.6484C109.314 13.712 107.764 14.2437 105.844 14.2437C104.999 14.2437 104.215 14.1374 103.492 13.9246V17.8066C103.492 18.4802 103.572 19.0297 103.73 19.4551C103.889 19.8806 104.083 20.1996 104.312 20.4124C104.54 20.6073 104.778 20.7226 105.025 20.758H98.5513C98.9739 20.7048 99.3088 20.4212 99.5554 19.9072C99.802 19.3754 99.9252 18.6752 99.9252 17.8066V6.10754ZM103.492 11.4785C104.109 11.6734 104.761 11.771 105.448 11.771C106.399 11.771 107.13 11.4785 107.641 10.8935C108.152 10.2908 108.407 9.5109 108.407 8.55369C108.407 7.64967 108.134 6.91404 107.588 6.34683C107.042 5.76188 106.267 5.46938 105.263 5.46938H103.492V11.4785Z" fill="white"/>
<path d="M81.1203 6.18706C81.1203 5.65527 80.9882 5.18553 80.7242 4.77785C80.4776 4.37014 80.1516 4.00677 79.7464 3.68769C79.3589 3.36862 79.0153 3.15592 78.7158 3.04956H84.3176L92.6146 13.499V5.97433C92.6146 5.33621 92.5443 4.82216 92.4035 4.43219C92.28 4.04222 92.1304 3.74973 91.9541 3.55475C91.7781 3.34203 91.5137 3.17364 91.1614 3.04956H96.8953C96.4901 3.12046 96.1555 3.41294 95.8911 3.92699C95.6445 4.44105 95.5214 5.12348 95.5214 5.97433V20.7578H92.7732C92.1391 19.1624 91.1965 17.6026 89.9461 16.0781L84.0536 8.84594V17.8596C84.0536 18.5154 84.1329 19.0561 84.2911 19.4815C84.4497 19.8892 84.6525 20.1994 84.8991 20.4121C85.1631 20.6071 85.4097 20.7223 85.639 20.7578H79.7729C80.0017 20.7223 80.2219 20.5982 80.4334 20.3855C80.6449 20.1728 80.8122 19.8626 80.9353 19.4549C81.0588 19.0472 81.1203 18.5154 81.1203 17.8596V6.18706Z" fill="white"/>
<path d="M41.2656 21.1572C38.7112 21.1572 36.6325 20.3241 35.0294 18.6579C33.4441 16.9739 32.6514 14.8114 32.6514 12.1702C32.6514 10.4153 33.0389 8.81114 33.814 7.35759C34.6067 5.88633 35.7164 4.73417 37.1435 3.90105C38.5703 3.06793 40.147 2.65137 41.8732 2.65137C44.4099 2.65137 46.4621 3.49335 48.0301 5.1773C49.6155 6.84355 50.4082 8.99724 50.4082 11.6384C50.4082 14.3327 49.5536 16.5928 47.8451 18.4186C46.1362 20.2443 43.9432 21.1572 41.2656 21.1572ZM41.8732 18.4186C43.2649 18.4186 44.3922 17.8691 45.2555 16.7701C46.1362 15.6533 46.5765 14.1821 46.5765 12.3563C46.5765 10.2647 46.0924 8.57181 45.1233 7.27783C44.1546 5.98384 42.851 5.33683 41.2127 5.33683C39.8211 5.33683 38.6847 5.87748 37.804 6.95877C36.9407 8.02231 36.5091 9.48472 36.5091 11.3459C36.5091 13.4908 36.9849 15.2102 37.9362 16.5042C38.8875 17.7805 40.1999 18.4186 41.8732 18.4186Z" fill="white"/>
<path d="M17.9595 6.13386C17.9595 4.43219 17.4222 3.40408 16.3477 3.04956H24.0898C25.9747 3.04956 27.4809 3.54588 28.6083 4.53852C29.7533 5.53119 30.3258 6.76312 30.3258 8.23438C30.3258 9.4752 29.9383 10.5565 29.1632 11.4782C28.4057 12.4 27.3575 12.9495 26.0188 13.1268C26.4768 13.4104 26.9172 13.9244 27.3399 14.6689L29.6917 18.7636C30.0263 19.3663 30.4051 19.8449 30.8279 20.1994C31.2682 20.5539 31.6558 20.74 31.9905 20.7578H26.6265L23.6935 15.307C23.3764 14.7043 23.0945 14.3055 22.8479 14.1105C22.6013 13.8978 22.3018 13.7915 21.9495 13.7915H21.5796V17.8064C21.5796 18.48 21.65 19.0295 21.791 19.4549C21.9319 19.8803 22.0992 20.1994 22.293 20.4121C22.5044 20.6071 22.7158 20.7223 22.9272 20.7578H16.559C16.788 20.7223 17.0082 20.6071 17.2197 20.4121C17.4486 20.1994 17.6248 19.8803 17.7481 19.4549C17.889 19.0118 17.9595 18.4623 17.9595 17.8064V6.13386ZM23.4028 11.3985C24.3893 11.3985 25.1556 11.1237 25.7017 10.5742C26.2654 10.0247 26.5472 9.28022 26.5472 8.34075C26.5472 7.50764 26.2566 6.82518 25.6752 6.29339C25.1115 5.74389 24.3453 5.46914 23.3764 5.46914H21.5532V11.3985H23.4028Z" fill="white"/>
<path d="M14.6652 18.6845C14.0486 19.4112 13.2207 20.0051 12.1814 20.4659C11.1596 20.9268 10.0674 21.1572 8.9048 21.1572C6.19197 21.1572 4.02522 20.333 2.40456 18.6845C0.80152 17.0182 0 14.8822 0 12.2765C0 10.504 0.396355 8.88202 1.18907 7.4108C1.98178 5.92179 3.10039 4.76077 4.54487 3.92764C6.00699 3.07679 7.68932 2.65137 9.59183 2.65137C11.4767 2.65137 13.0533 2.99702 14.3217 3.68834V8.7934C13.9165 7.74757 13.2911 6.90561 12.4456 6.26745C11.6 5.62933 10.5519 5.31027 9.30115 5.31027C7.73336 5.31027 6.44741 5.92179 5.4433 7.1449C4.4568 8.35027 3.96355 9.8924 3.96355 11.7713C3.96355 13.6858 4.4568 15.2634 5.4433 16.5042C6.44741 17.745 7.75976 18.3654 9.38042 18.3654C10.3317 18.3654 11.2829 18.1261 12.2342 17.6475C13.1855 17.1512 13.9958 16.4776 14.6652 15.6267V18.6845Z" fill="white"/>
<path d="M60.2047 8.11163L52.0791 4.62507L54.4141 17.2539C54.5389 17.9296 54.6019 18.6153 54.6019 19.3025V20.808H75.4144V19.5547C75.4144 18.7007 75.5115 17.8495 75.7038 17.0178L78.5678 4.62507L70.3727 8.11163L65.3236 0.5L60.2047 8.11163Z" fill="url(#paint0_linear_18835_10419)"/>
<path d="M57.335 18.2154L65.2348 4.29614L72.7586 18.2154H57.335Z" fill="url(#paint1_linear_18835_10419)"/>
<path d="M57.335 18.2153L75.1607 8.31396L72.7586 18.2153H57.335Z" fill="url(#paint2_linear_18835_10419)"/>
<path d="M72.759 18.2153L55.3096 8.31396L57.3357 18.2153H72.759Z" fill="url(#paint3_linear_18835_10419)"/>
</g>
<defs>
<linearGradient id="paint0_linear_18835_10419" x1="65.3236" y1="0.5" x2="65.3236" y2="20.808" gradientUnits="userSpaceOnUse">
<stop stop-color="#F9F295"/>
<stop offset="0.324648" stop-color="#DBB057"/>
<stop offset="0.531603" stop-color="#D9AC53"/>
<stop offset="0.75" stop-color="#FFECA9"/>
<stop offset="0.896537" stop-color="#C9A65E"/>
<stop offset="1" stop-color="#B88A44"/>
</linearGradient>
<linearGradient id="paint1_linear_18835_10419" x1="65.0469" y1="4.29614" x2="65.0469" y2="18.2154" gradientUnits="userSpaceOnUse">
<stop stop-color="#9C7529"/>
<stop offset="1" stop-color="#D8AD51" stop-opacity="0"/>
</linearGradient>
<linearGradient id="paint2_linear_18835_10419" x1="66.248" y1="8.31396" x2="66.2143" y2="21.85" gradientUnits="userSpaceOnUse">
<stop stop-color="#9C7529"/>
<stop offset="1" stop-color="#D8AD51" stop-opacity="0"/>
</linearGradient>
<linearGradient id="paint3_linear_18835_10419" x1="64.0344" y1="8.31396" x2="64" y2="21.85" gradientUnits="userSpaceOnUse">
<stop stop-color="#9C7529"/>
<stop offset="1" stop-color="#D8AD51" stop-opacity="0"/>
</linearGradient>
<clipPath id="clip0_18835_10419">
<rect width="160" height="21" fill="white" transform="translate(0 0.5)"/>
</clipPath>
</defs>
</svg>
