<svg width="22" height="22" viewBox="0 0 22 22" fill="none" xmlns="http://www.w3.org/2000/svg">
<circle cx="11" cy="11" r="11" fill="white"/>
<path d="M13.5813 6.20679H8.64502V15.0752H13.5813V6.20679Z" fill="#FF5A00"/>
<path d="M8.97354 10.6409C8.97354 8.8391 9.82058 7.23993 11.1204 6.20668C10.1638 5.45456 8.95711 5 7.6409 5C4.52289 5 2 7.52289 2 10.6409C2 13.7589 4.52289 16.2818 7.6409 16.2818C8.95711 16.2818 10.1638 15.8272 11.1204 15.0751C9.81876 14.0565 8.97354 12.4427 8.97354 10.6409Z" fill="#EB001B"/>
<path d="M20.241 10.6409C20.241 13.7589 17.7181 16.2818 14.6001 16.2818C13.2839 16.2818 12.0772 15.8272 11.1206 15.0751C12.4368 14.04 13.2674 12.4427 13.2674 10.6409C13.2674 8.8391 12.4204 7.23993 11.1206 6.20668C12.0754 5.45456 13.282 5 14.5982 5C17.7181 5 20.241 7.53932 20.241 10.6409Z" fill="#F79E1B"/>
</svg>
