<svg width="70" height="24" viewBox="0 0 70 24" fill="none" xmlns="http://www.w3.org/2000/svg">
<path d="M15.6971 7.39795H11.0195V15.8037H15.6971V7.39795Z" fill="#FF5F00"/>
<path d="M11.3156 11.6003C11.3148 10.7908 11.4983 9.99169 11.852 9.26353C12.2058 8.53538 12.7205 7.89725 13.3573 7.39745C12.5687 6.77758 11.6216 6.39209 10.6243 6.28505C9.62695 6.178 8.61961 6.35371 7.71741 6.79211C6.81522 7.2305 6.05456 7.91389 5.52239 8.76415C4.99022 9.61441 4.70801 10.5972 4.70801 11.6003C4.70801 12.6034 4.99022 13.5862 5.52239 14.4365C6.05456 15.2867 6.81522 15.9701 7.71741 16.4085C8.61961 16.8469 9.62695 17.0226 10.6243 16.9156C11.6216 16.8085 12.5687 16.423 13.3573 15.8032C12.7205 15.3034 12.2058 14.6652 11.852 13.9371C11.4983 13.2089 11.3148 12.4098 11.3156 11.6003Z" fill="#EB001B"/>
<path d="M22.0075 11.6004C22.0075 12.6035 21.7253 13.5863 21.1932 14.4366C20.6611 15.2868 19.9004 15.9702 18.9982 16.4086C18.0961 16.847 17.0887 17.0227 16.0914 16.9157C15.0941 16.8087 14.147 16.4232 13.3584 15.8033C13.9947 15.303 14.509 14.6648 14.8627 13.9367C15.2164 13.2087 15.4002 12.4098 15.4002 11.6004C15.4002 10.791 15.2164 9.99219 14.8627 9.26415C14.509 8.53611 13.9947 7.89788 13.3584 7.39757C14.147 6.7777 15.0941 6.39221 16.0914 6.28517C17.0887 6.17812 18.0961 6.35384 18.9982 6.79224C19.9004 7.23064 20.6611 7.91402 21.1932 8.76429C21.7253 9.61455 22.0075 10.5974 22.0075 11.6004Z" fill="#F79E1B"/>
<path d="M31.35 13.5072V11.2617C31.35 10.4027 30.8268 9.84025 29.9286 9.84025C29.4795 9.84025 28.9911 9.98849 28.6554 10.4768C28.3938 10.067 28.0188 9.84025 27.4563 9.84025C27.0813 9.84025 26.7063 9.95361 26.4098 10.3635V9.91437H25.625V13.5072H26.4098V11.5233C26.4098 10.8867 26.7456 10.5859 27.2688 10.5859C27.7921 10.5859 28.0537 10.9216 28.0537 11.5233V13.5072H28.8385V11.5233C28.8385 10.8867 29.2135 10.5859 29.6975 10.5859C30.2207 10.5859 30.4823 10.9216 30.4823 11.5233V13.5072H31.35ZM42.992 9.91437H41.7188V8.82866H40.9339V9.91437H40.2232V10.6251H40.9339V12.2733C40.9339 13.0974 41.2697 13.5814 42.1679 13.5814C42.5036 13.5814 42.8786 13.468 43.1402 13.3197L42.9135 12.6439C42.6867 12.7921 42.4251 12.8314 42.2376 12.8314C41.8627 12.8314 41.7144 12.6047 41.7144 12.234V10.6251H42.9876V9.91437H42.992ZM49.6545 9.83588C49.2054 9.83588 48.9045 10.0626 48.717 10.3591V9.91001H47.9322V13.5029H48.717V11.4797C48.717 10.8823 48.9786 10.5422 49.467 10.5422C49.6152 10.5422 49.8027 10.5815 49.9553 10.6164L50.1821 9.86641C50.0251 9.83588 49.8027 9.83588 49.6545 9.83588ZM39.5866 10.2109C39.2116 9.94925 38.6884 9.83588 38.1259 9.83588C37.2277 9.83588 36.6303 10.285 36.6303 10.9957C36.6303 11.5931 37.0794 11.9332 37.8643 12.0422L38.2393 12.0814C38.6491 12.1555 38.8759 12.2689 38.8759 12.4564C38.8759 12.718 38.575 12.9055 38.0518 12.9055C37.5285 12.9055 37.1143 12.718 36.8527 12.5305L36.4777 13.1279C36.8876 13.4287 37.4501 13.577 38.0125 13.577C39.059 13.577 39.6607 13.0886 39.6607 12.4172C39.6607 11.7806 39.1724 11.4448 38.4268 11.3315L38.0518 11.2922C37.716 11.253 37.4544 11.1788 37.4544 10.9565C37.4544 10.6949 37.716 10.5466 38.1303 10.5466C38.5794 10.5466 39.0285 10.7341 39.2552 10.8475L39.5866 10.2109ZM60.4679 9.83588C60.0188 9.83588 59.718 10.0626 59.5305 10.3591V9.91001H58.7456V13.5029H59.5305V11.4797C59.5305 10.8823 59.7921 10.5422 60.2804 10.5422C60.4287 10.5422 60.6162 10.5815 60.7688 10.6164L60.9955 9.87513C60.8429 9.83588 60.6205 9.83588 60.4679 9.83588ZM50.4393 11.7108C50.4393 12.7965 51.1893 13.5814 52.3491 13.5814C52.8723 13.5814 53.2473 13.468 53.6223 13.1715L53.2473 12.5349C52.9465 12.7616 52.65 12.8706 52.3099 12.8706C51.6733 12.8706 51.2242 12.4215 51.2242 11.7108C51.2242 11.035 51.6733 10.5859 52.3099 10.551C52.6456 10.551 52.9465 10.6643 53.2473 10.8867L53.6223 10.2501C53.2473 9.94925 52.8723 9.84025 52.3491 9.84025C51.1893 9.83589 50.4393 10.6251 50.4393 11.7108ZM57.6992 11.7108V9.91437H56.9143V10.3635C56.6527 10.0277 56.2777 9.84025 55.7894 9.84025C54.7778 9.84025 53.9929 10.6251 53.9929 11.7108C53.9929 12.7965 54.7778 13.5814 55.7894 13.5814C56.3126 13.5814 56.6876 13.3939 56.9143 13.0581V13.5072H57.6992V11.7108ZM54.817 11.7108C54.817 11.0742 55.2269 10.551 55.9027 10.551C56.5393 10.551 56.9884 11.0393 56.9884 11.7108C56.9884 12.3474 56.5393 12.8706 55.9027 12.8706C55.2313 12.8314 54.817 12.343 54.817 11.7108ZM45.425 9.83588C44.3785 9.83588 43.6286 10.5859 43.6286 11.7064C43.6286 12.8314 44.3785 13.577 45.4642 13.577C45.9875 13.577 46.5107 13.4287 46.9249 13.0886L46.5499 12.5262C46.2491 12.7529 45.8741 12.9012 45.5035 12.9012C45.0151 12.9012 44.5311 12.6744 44.4178 12.0422H47.0732C47.0732 11.9288 47.0732 11.8547 47.0732 11.7413C47.1081 10.5859 46.4322 9.83588 45.425 9.83588ZM45.425 10.5117C45.9133 10.5117 46.2491 10.8126 46.3232 11.3707H44.4527C44.5268 10.8867 44.8625 10.5117 45.425 10.5117ZM64.9241 11.7108V8.49292H64.1393V10.3635C63.8777 10.0277 63.5027 9.84025 63.0143 9.84025C62.0028 9.84025 61.2179 10.6251 61.2179 11.7108C61.2179 12.7965 62.0028 13.5814 63.0143 13.5814C63.5376 13.5814 63.9126 13.3939 64.1393 13.0581V13.5072H64.9241V11.7108ZM62.042 11.7108C62.042 11.0742 62.4519 10.551 63.1277 10.551C63.7643 10.551 64.2134 11.0393 64.2134 11.7108C64.2134 12.3474 63.7643 12.8706 63.1277 12.8706C62.4519 12.8314 62.042 12.343 62.042 11.7108ZM35.767 11.7108V9.91437H34.9821V10.3635C34.7205 10.0277 34.3455 9.84025 33.8572 9.84025C32.8456 9.84025 32.0608 10.6251 32.0608 11.7108C32.0608 12.7965 32.8456 13.5814 33.8572 13.5814C34.3804 13.5814 34.7554 13.3939 34.9821 13.0581V13.5072H35.767V11.7108ZM32.85 11.7108C32.85 11.0742 33.2598 10.551 33.9357 10.551C34.5723 10.551 35.0214 11.0393 35.0214 11.7108C35.0214 12.3474 34.5723 12.8706 33.9357 12.8706C33.2598 12.8314 32.85 12.343 32.85 11.7108Z" fill="white"/>
</svg>
