<svg width="80" height="37" viewBox="0 0 80 37" fill="none" xmlns="http://www.w3.org/2000/svg">
<path d="M48.3054 24.3194C48.3054 25.7478 47.1474 26.9059 45.7189 26.9059H34.2602C32.843 26.9059 31.6943 25.7572 31.6943 24.3404V12.7682C31.6943 11.4021 32.8017 10.2948 34.1678 10.2948H45.832C47.1981 10.2948 48.3054 11.4021 48.3054 12.7679V24.3194Z" fill="#EBAB1F"/>
<path d="M33.2622 16.76V20.9814L32.5088 21.1506V16.9292L33.2622 16.76ZM35.2566 17.3045C34.7918 17.4088 34.5064 17.9322 34.5064 17.9322V17.5388L33.7753 17.6982V20.2168C33.8645 20.1826 33.9613 20.1629 34.0625 20.1629C34.2254 20.1629 34.3767 20.2118 34.5033 20.2951V19.0656C34.5089 18.4767 34.6777 18.1327 35.0305 18.0535C35.3403 17.9839 35.4565 18.2148 35.4515 18.5713V20.4943L36.1691 20.3324L36.1741 18.4153C36.1804 17.4765 35.8017 17.182 35.2566 17.3045ZM36.343 17.1215L36.7543 17.0291V16.4383L37.4817 16.2764V16.8659L37.9995 16.7494L37.9923 17.3878L37.4738 17.5043L37.4701 19.1029C37.4735 19.298 37.5077 19.4189 37.7266 19.3697C37.8121 19.3506 37.8804 19.329 37.9584 19.2993L37.9603 19.8988C37.7786 19.985 37.669 20.0197 37.5196 20.0533C37.1036 20.1494 36.7446 19.8788 36.7446 19.3259L36.7471 17.6675L36.3355 17.7599L36.343 17.1215ZM38.8759 18.3304C38.8762 18.3977 38.8744 18.4529 38.8853 18.5177C38.9398 18.8416 39.099 19.0931 39.4263 19.0198C39.727 18.9525 39.827 18.7526 39.8846 18.5321L40.6467 18.3611C40.5672 18.8494 40.3031 19.465 39.4711 19.6514C38.7249 19.8186 38.2739 19.3879 38.1501 18.6518C38.0145 17.8448 38.2247 16.6426 39.3305 16.3945C40.1465 16.2115 40.5283 16.6943 40.6333 17.3186C40.6749 17.566 40.6724 17.7499 40.658 17.9304L38.8759 18.3304ZM39.9347 17.5369C39.9366 17.4815 39.9288 17.4345 39.9228 17.3991C39.8783 17.1341 39.7324 16.9283 39.4103 17.0006C39.0774 17.0752 38.9132 17.3565 38.8828 17.7728L39.9347 17.5369ZM42.458 16.6091C41.9514 16.729 41.7071 17.0821 41.7043 17.7744L41.6977 19.09L40.971 19.2532V16.0819L41.6723 15.9246C41.6814 16.0023 41.698 16.2372 41.6968 16.4947C41.8149 16.0888 41.9768 15.8801 42.4577 15.7724V16.6091H42.458ZM45.0395 18.3166L45.0354 18.3175L44.3058 18.4823C44.2557 18.3911 44.2053 18.2464 44.1834 18.1446C44.08 18.3636 43.9384 18.6158 43.4253 18.731C42.8802 18.8535 42.5704 18.4823 42.5028 18.1239C42.3427 17.2785 42.9495 16.8678 43.5703 16.7096C43.7937 16.6526 43.9816 16.6191 44.1937 16.5655L44.183 16.3754C44.1783 16.1439 44.1248 15.862 43.7348 15.9497C43.3874 16.0277 43.3692 16.2476 43.3382 16.4076L42.5955 16.5743C42.6049 16.064 42.8276 15.5716 43.6878 15.3783C44.361 15.227 44.9208 15.4268 44.9157 16.2545V17.7587C44.9157 17.7587 44.9336 18.0124 44.9624 18.1346C44.9915 18.2586 45.0395 18.3166 45.0395 18.3166ZM44.1824 17.0796C44.0007 17.1203 43.8479 17.167 43.7072 17.2171C43.3144 17.3787 43.1819 17.5617 43.2308 17.8198C43.264 17.9958 43.3911 18.1083 43.6264 18.0553C44.1285 17.9426 44.1724 17.4674 44.1809 17.1291L44.1824 17.0796ZM47.6611 16.6758C47.6204 17.2847 47.3362 17.8445 46.5187 18.0281C45.8185 18.1853 45.3643 17.816 45.2265 17.0877C45.0598 16.2068 45.3117 15.0055 46.3376 14.7753C47.2354 14.5736 47.5919 15.2223 47.6279 15.6182L46.9224 15.7768C46.8726 15.5431 46.7577 15.3178 46.4316 15.3911C45.9185 15.5064 45.8755 16.3976 45.9676 16.885C46.0475 17.3079 46.2383 17.4608 46.4999 17.4022C46.7404 17.3483 46.8783 17.1641 46.9337 16.8396L47.6611 16.6758ZM35.7265 22.0668L34.6978 21.3667C34.6978 21.3667 34.6975 23.0094 34.6975 23.0849C34.6975 23.1375 34.6546 23.1805 34.6022 23.1805C34.5496 23.1805 34.5073 23.1375 34.5073 23.0849C34.5073 23.0664 34.5051 21.2063 34.5051 20.9792C34.5051 20.7358 34.3075 20.5376 34.0641 20.5376C33.8197 20.5376 33.6224 20.7358 33.6224 20.9792L33.623 24.6477C33.623 25.3062 34.159 25.8431 34.8178 25.8431H34.8967C35.5464 25.8431 36.0679 25.3165 36.0679 24.6665C36.0679 24.6665 36.0686 22.75 36.0686 22.7306C36.0686 22.476 35.9279 22.2213 35.7265 22.0668ZM32.7415 21.5199C32.5595 21.5638 32.4471 21.7467 32.4909 21.9287C32.5348 22.1107 32.7177 22.2232 32.8997 22.1793L33.4138 22.0559V21.3583L32.7415 21.5199ZM32.7415 22.4186C32.5595 22.4625 32.4471 22.6454 32.4909 22.8274C32.5348 23.0094 32.7177 23.1219 32.8997 23.078L33.4138 22.9546V22.257L32.7415 22.4186ZM32.4909 23.7265C32.5345 23.9085 32.7177 24.0209 32.8997 23.9771L33.4138 23.8536V23.156L32.7415 23.3173C32.5595 23.3612 32.4474 23.5445 32.4909 23.7265Z" fill="black"/>
</svg>
