<svg width="70" height="40" viewBox="0 0 70 40" fill="none" xmlns="http://www.w3.org/2000/svg">
<g clip-path="url(#clip0_19397_65599)">
<path opacity="0.05" fill-rule="evenodd" clip-rule="evenodd" d="M47.0676 -10.3994V3.1025C47.4674 3.32999 47.868 3.55782 48.269 3.78594C51.6862 5.72968 55.1406 7.69462 58.5347 9.65402L58.7343 9.76925V22.642L69.5963 16.4347V3.56037L57.7824 -3.18882L58.1847 -3.87847L69.9986 2.87073L81.8125 -3.88168L82.2149 -3.19211L70.4009 3.56032V16.8945L59.1477 23.3253C63.6455 25.8936 68.0372 28.4048 69.9996 29.536L81.8125 22.785L82.2149 23.4746L69.9976 30.4567L69.7959 30.3403C67.9465 29.2726 63.3966 26.6708 58.7343 24.0086V36.4363L70.5482 43.1855L70.1459 43.8752L57.9296 36.8961V24.0213L47.0676 30.2286V43.7302H46.263V29.7689L57.538 23.3256C53.0358 20.7555 48.635 18.2465 46.6657 17.1257L35.4009 23.5635V36.8977L23.7342 43.5651V43.7326H23.4412L23.3309 43.7956L23.2218 43.7326H22.9296V43.564C19.6018 41.6439 16.2178 39.719 12.8671 37.8131C12.4661 37.585 12.0656 37.3572 11.6657 37.1297L-0.148597 43.8815L-0.550946 43.192L11.6648 36.2107L11.8658 36.325C12.332 36.5903 12.7991 36.856 13.2669 37.1221C16.4819 38.9508 19.7299 40.7983 22.9296 42.6424V30.2299C19.6017 28.3097 16.2174 26.3847 12.8665 24.4787C12.4657 24.2507 12.0654 24.023 11.6657 23.7956L-0.00133705 30.4641L-12.4727 23.3393L-0.403684 16.4419V3.56832L-12.2176 -3.18168L-11.8153 -3.87131L-0.00140953 2.87869L11.6648 -3.78853L11.8658 -3.6742C13.7212 -2.61852 18.27 -0.0253437 22.9296 2.63468V-10.397H23.7342V2.64558L35.1458 -3.8761L35.5482 -3.18651L24.1466 3.32946C28.6448 5.89793 33.037 8.40945 34.9995 9.54082L46.263 3.10303V-10.3994H47.0676ZM46.6657 3.79239L34.9976 10.4615L34.7959 10.345C32.9465 9.2774 28.3966 6.67553 23.7342 4.01335V16.4387L34.9986 22.8739L46.6648 16.2067L46.8658 16.321C48.7212 17.3767 53.27 19.9699 57.9296 22.6299V10.2267C54.6016 8.30651 51.2174 6.38148 47.8664 4.47541C47.4657 4.24745 47.0654 4.01976 46.6657 3.79239ZM34.5963 23.5636L22.9296 16.8985V4.02494L12.0676 10.2326V23.1057C12.4667 23.3328 12.8666 23.5602 13.2669 23.7879C16.6847 25.7321 20.1399 27.6974 23.5347 29.6572L23.7342 29.7724V42.6456L34.5963 36.4379V23.5636ZM11.263 23.1062V9.77287L22.537 3.32981C18.0351 0.759851 13.6348 -1.7488 11.6657 -2.8695L0.400913 3.5683V16.9016L-10.8634 23.3392L-0.00143242 29.5446L11.263 23.1062Z" fill="#FFAE00"/>
</g>
<defs>
<clipPath id="clip0_19397_65599">
<rect width="70" height="40" fill="white"/>
</clipPath>
</defs>
</svg>
