<svg width="24" height="22" viewBox="0 0 24 22" fill="none" xmlns="http://www.w3.org/2000/svg">
<circle cx="12" cy="11" r="11" fill="white"/>
<path fill-rule="evenodd" clip-rule="evenodd" d="M7.13106 4.375H17.0686C17.3058 4.375 17.5248 4.5089 17.6431 4.72612L20.5383 10.0444C20.6884 10.3202 20.6438 10.6683 20.4297 10.892L12.4605 19.2145C12.2023 19.4841 11.7871 19.4841 11.5289 19.2145L3.57047 10.9032C3.35134 10.6744 3.3103 10.3161 3.47144 10.0386L6.56621 4.70906C6.68674 4.5015 6.90062 4.375 7.13106 4.375Z" fill="#009393"/>
<path fill-rule="evenodd" clip-rule="evenodd" d="M15.7854 6.74939V8.24163H12.9546V9.27624C14.9428 9.38681 16.4344 9.84089 16.4455 10.3852L16.4454 11.5199C16.4344 12.0641 14.9428 12.5182 12.9546 12.6288V15.1678H11.0749V12.6288C9.08668 12.5182 7.59503 12.0641 7.58398 11.5199L7.58402 10.3852C7.5951 9.84089 9.08668 9.38681 11.0749 9.27624V8.24163H8.24404V6.74939H15.7854ZM12.0147 11.8493C14.1365 11.8493 15.9099 11.4653 16.3439 10.9525C15.9759 10.5177 14.6446 10.1755 12.9546 10.0815V11.1647C12.6517 11.1816 12.3372 11.1904 12.0147 11.1904C11.6922 11.1904 11.3778 11.1816 11.0749 11.1647V10.0815C9.38483 10.1755 8.0536 10.5177 7.68557 10.9525C8.11956 11.4653 9.89298 11.8493 12.0147 11.8493Z" fill="white"/>
</svg>
