<svg id="test2" viewBox="0 0 28 28" xmlns="http://www.w3.org/2000/svg"><path d="m11.298 4.051 1.552 1.524S11.394 7.553 10 7.885c-.382.091-.661.087-1 .115H2.5V6.878c0-.924.373-1.811 1.04-2.467a3.599 3.599 0 0 1 2.522-1.026h3.6c.615 0 1.204.24 1.636.666ZM2.5 21.007V11h7.161a3.36 3.36 0 0 0 1.265-.247c.401-.163.765-.45 1.074-.753l4-4h6.907c.943 0 1.918.842 2.593 1.5.33.324.552.693.73 1.116.178.423.27.876.27 1.334v11.057c0 .458-.092.911-.27 1.334-.18.425-.504 1.31-.833 1.633A3.584 3.584 0 0 1 22.875 25H6c-.948 0-1.855-.37-2.523-1.026-.329-.322-.527-1.205-.705-1.629a3.459 3.459 0 0 1-.272-1.338Z"/></svg>