<svg width="28" height="28" viewBox="0 0 28 28" fill="none" xmlns="http://www.w3.org/2000/svg">
<g clip-path="url(#clip0_51984_60694)">
<path d="M22.6495 8.68641C22.6049 8.67929 22.5715 8.64099 22.5715 8.59579C22.5715 6.97823 23.8088 5.64518 25.3868 5.49292C25.5529 5.47689 25.6887 5.34309 25.6887 5.17614V4.22204C25.6887 4.05509 25.5529 3.91873 25.3863 3.92941C22.9483 4.08572 21.0129 6.11883 21.0129 8.59579C21.0129 8.64099 20.9795 8.67929 20.9348 8.68642C18.3361 9.10131 16.3371 11.3372 16.3371 14.0512C16.3371 14.1984 16.3244 14.3422 16.3068 14.4848C16.2843 14.6675 16.4233 14.8305 16.6075 14.8305H18.675C19.8619 14.8305 20.8451 13.9413 20.9935 12.7941C21.0149 12.6285 21.1482 12.4925 21.3152 12.4925H22.2692C22.4362 12.4925 22.5694 12.6285 22.5909 12.7941C22.7393 13.9413 23.7225 14.8305 24.9094 14.8305H26.9746C27.1347 14.8305 27.2676 14.7058 27.2784 14.5461C27.2894 14.3821 27.2992 14.2179 27.2992 14.0512C27.2992 11.3374 25.2492 9.10129 22.6495 8.68641Z" fill="#09080C"/>
<path d="M22.0499 15.1367C21.9131 14.989 21.6712 14.989 21.5345 15.1367C20.8222 15.9062 19.804 16.3892 18.675 16.3892H15.9804C15.864 16.3892 15.7586 16.4563 15.7048 16.5595C14.7944 18.3042 12.9822 19.5066 10.882 19.5066H9.05637C6.42157 19.5066 3.89251 18.4806 2.0295 16.6175L1.21523 15.8032C1.02481 15.6128 0.699219 15.7476 0.699219 16.0169V17.1685C0.699219 22.7548 5.29606 27.3 10.882 27.3H13.9992C20.3806 27.3 25.7607 22.761 27.0112 16.7443C27.0495 16.56 26.9069 16.3892 26.7186 16.3892H24.9094C23.7804 16.3892 22.7621 15.9062 22.0499 15.1367Z" fill="#09080C"/>
<path d="M7.03604 18.1359C5.1413 11.9857 8.94331 9.09428 8.94331 9.09428C8.6632 12.3761 10.5564 14.9328 10.5564 14.9328C11.2528 14.7259 12.5818 13.7587 12.5818 13.7587C12.5818 14.9328 11.8805 17.4886 11.8805 17.4886C11.8805 17.4886 14.3355 15.6188 15.1083 12.5131C15.8801 9.4074 13.6382 6.28949 13.6382 6.28949C13.7733 8.48763 13.0184 10.6496 11.5393 12.3012C11.6133 12.2171 11.6754 12.1236 11.7231 12.0224C11.9888 11.4989 12.4154 10.1383 12.1656 6.98763C11.814 2.56492 7.74588 0.699951 7.74588 0.699951C8.09652 3.39467 7.0451 4.01551 4.5822 9.13049C1.33255 15.5528 7.03604 18.1359 7.03604 18.1359Z" fill="#09080C"/>
</g>
<defs>
<clipPath id="clip0_51984_60694">
<rect width="28" height="28" fill="white"/>
</clipPath>
</defs>
</svg>
