<svg width="28" height="28" viewBox="0 0 28 28" fill="none" xmlns="http://www.w3.org/2000/svg">
<path d="M5.88557 5.2526C6.14615 5.17209 6.42305 5.12874 6.71006 5.12874H21.2971C21.5824 5.12874 21.8576 5.17157 22.1168 5.25113C21.7771 2.94046 19.7863 1.16675 17.3813 1.16675H10.6213C8.21577 1.16675 6.22468 2.94121 5.88557 5.2526Z" fill="#09080C"/>
<path fill-rule="evenodd" clip-rule="evenodd" d="M1.16797 13.4489C1.16797 9.48352 4.38257 6.26892 8.34798 6.26892H19.6546C23.62 6.26892 26.8346 9.48352 26.8346 13.4489V22.0467C26.8346 24.6904 24.6916 26.8334 22.048 26.8334H5.95464C3.31103 26.8334 1.16797 24.6904 1.16797 22.0467V13.4489ZM4.55171 16.1373C4.61807 15.8495 4.72679 15.5769 4.86085 15.3151C5.20788 14.637 5.68942 14.0815 6.35388 13.6954C6.35816 13.693 6.36204 13.6899 6.36735 13.6856L6.37944 13.6762C6.33856 13.6721 6.29835 13.6691 6.25877 13.6662C6.17338 13.6598 6.09078 13.6537 6.01022 13.6376C5.92132 13.6197 5.83325 13.597 5.74526 13.5743C5.62201 13.5425 5.49884 13.5107 5.37355 13.4921C5.07091 13.4471 4.78127 13.4946 4.53512 13.6975C4.42886 13.7851 4.35668 13.897 4.31117 14.0263C4.26588 14.155 4.24167 14.1718 4.10268 14.1718C3.93455 14.172 3.76642 14.1722 3.59828 14.1716C3.46714 14.1711 3.41602 14.1234 3.42454 13.9943C3.43948 13.7661 3.45638 13.5379 3.47327 13.31C3.48323 13.1755 3.49322 13.0407 3.50278 12.9061C3.51713 12.7053 3.53103 12.5042 3.54201 12.3031C3.5512 12.1312 3.59425 12.0881 3.76866 12.0881L3.86666 12.0881C3.93204 12.088 3.99746 12.088 4.06278 12.0881C4.22733 12.0886 4.27104 12.1312 4.27687 12.2957C4.27734 12.3071 4.27894 12.3185 4.28046 12.3294L4.28225 12.3428C4.33358 12.3261 4.38452 12.3089 4.43511 12.2917C4.54462 12.2546 4.65321 12.2178 4.76356 12.1881C5.3666 12.0251 5.95238 12.0722 6.52403 12.3305C6.6572 12.3905 6.80471 12.4264 6.94953 12.4522C7.19747 12.4961 7.40954 12.3914 7.60973 12.2589C7.74132 12.1717 7.77742 12.1751 7.89108 12.289L8.01544 12.4132C8.11077 12.5084 8.20612 12.6036 8.3011 12.6992C8.39324 12.792 8.39301 12.8573 8.30065 12.9505C7.75612 13.5011 7.31897 14.1274 6.98069 14.8232L6.92218 14.9432C6.88484 15.0472 6.84605 15.151 6.80732 15.2546C6.72108 15.4854 6.63466 15.7167 6.56358 15.952C6.42325 16.4165 6.35891 16.8957 6.34793 17.3815C6.34479 17.5172 6.29367 17.5665 6.1567 17.5665L5.61473 17.5665C5.2575 17.5666 4.90023 17.5666 4.54306 17.5665C4.40856 17.5665 4.36395 17.5207 4.36529 17.384C4.36933 16.9879 4.42739 16.5992 4.52199 16.2152C4.52642 16.197 4.53394 16.1795 4.54146 16.162C4.54497 16.1538 4.5485 16.1456 4.55171 16.1373ZM9.52464 14.8273C9.52464 13.0288 9.23902 10.2574 9.23902 10.2574C9.23902 10.2574 8.9534 13.0288 8.9534 14.8273C8.9534 16.6258 9.23902 19.3972 9.23902 19.3972C9.23902 19.3972 9.52464 16.6258 9.52464 14.8273ZM12.3341 16.7351C12.4307 16.3159 12.5891 15.9189 12.7843 15.5376C13.2896 14.5501 13.9909 13.7412 14.9585 13.179C14.9648 13.1754 14.9704 13.1709 14.9782 13.1647L14.9865 13.1581L14.9958 13.1509C14.9362 13.145 14.8777 13.1407 14.82 13.1364C14.6957 13.1271 14.5754 13.1182 14.4581 13.0948C14.3286 13.0687 14.2004 13.0356 14.0722 13.0025C13.8927 12.9562 13.7134 12.91 13.5309 12.8829C13.0902 12.8173 12.6684 12.8865 12.3099 13.1819C12.1552 13.3096 12.0501 13.4725 11.9838 13.6609C11.9178 13.8482 11.8826 13.8727 11.6802 13.8727C11.4353 13.873 11.1905 13.8734 10.9456 13.8724C10.7547 13.8717 10.6802 13.8022 10.6926 13.6142C10.7144 13.282 10.739 12.9497 10.7636 12.6177C10.7781 12.4218 10.7926 12.2255 10.8066 12.0296C10.8275 11.7371 10.8477 11.4442 10.8637 11.1514C10.8771 10.901 10.9398 10.8383 11.1937 10.8383L11.3365 10.8382C11.4317 10.8382 11.5269 10.8381 11.6221 10.8383C11.8617 10.839 11.9254 10.901 11.9338 11.1406C11.9345 11.1572 11.9368 11.1738 11.9391 11.1897L11.9417 11.2092C12.0164 11.1849 12.0906 11.1598 12.1643 11.1348C12.3238 11.0808 12.4819 11.0272 12.6426 10.9839C13.5208 10.7466 14.3738 10.8151 15.2063 11.1912C15.4002 11.2787 15.6151 11.3309 15.826 11.3685C16.187 11.4325 16.4959 11.28 16.7874 11.0871C16.979 10.9601 17.0316 10.965 17.1971 11.1308L17.3791 11.3126C17.5176 11.451 17.6562 11.5893 17.7942 11.7282C17.9284 11.8634 17.9281 11.9584 17.7936 12.0942C17.0006 12.896 16.364 13.8081 15.8713 14.8214L15.7861 14.9961C15.7317 15.1476 15.6752 15.2987 15.6188 15.4497C15.4932 15.7857 15.3674 16.1225 15.2639 16.4651C15.0595 17.1416 14.9659 17.8395 14.9499 18.5469C14.9453 18.7444 14.8709 18.8163 14.6714 18.8163L13.8792 18.8163C13.3599 18.8164 12.8406 18.8165 12.3215 18.8163C12.1256 18.8163 12.0606 18.7497 12.0626 18.5505C12.0685 17.9737 12.153 17.4076 12.2908 16.8484C12.2973 16.8219 12.3082 16.7965 12.3192 16.771C12.3243 16.7591 12.3294 16.7471 12.3341 16.7351ZM19.0492 14.8273C19.0492 13.0288 18.7636 10.2574 18.7636 10.2574C18.7636 10.2574 18.478 13.0288 18.478 14.8273C18.478 16.6258 18.7636 19.3972 18.7636 19.3972C18.7636 19.3972 19.0492 16.6258 19.0492 14.8273ZM21.344 16.1373C21.4103 15.8495 21.519 15.5769 21.6531 15.3151C22.0001 14.637 22.4817 14.0815 23.1461 13.6954C23.1504 13.693 23.1543 13.6899 23.1596 13.6856L23.1717 13.6762C23.1308 13.6721 23.0906 13.6691 23.051 13.6662C22.9656 13.6598 22.883 13.6537 22.8025 13.6376C22.7136 13.6197 22.6255 13.597 22.5375 13.5742C22.4143 13.5425 22.2911 13.5107 22.1658 13.4921C21.8631 13.4471 21.5735 13.4946 21.3274 13.6975C21.2211 13.7851 21.1489 13.897 21.1034 14.0263C21.0581 14.155 21.0339 14.1718 20.8949 14.1718C20.7268 14.172 20.5587 14.1722 20.3905 14.1716C20.2594 14.1711 20.2083 14.1234 20.2168 13.9943C20.2317 13.7661 20.2486 13.5379 20.2655 13.31C20.2755 13.1756 20.2855 13.0405 20.295 12.9061C20.3094 12.7053 20.3233 12.5042 20.3343 12.3031C20.3434 12.1312 20.3865 12.0881 20.5609 12.0881L20.6589 12.0881C20.7243 12.088 20.7897 12.088 20.855 12.0881C21.0196 12.0886 21.0633 12.1312 21.0691 12.2957C21.0696 12.3071 21.0712 12.3185 21.0727 12.3294L21.0745 12.3428C21.1258 12.3261 21.1768 12.3089 21.2273 12.2917C21.3369 12.2546 21.4454 12.2178 21.5558 12.1881C22.1588 12.0251 22.7446 12.0722 23.3163 12.3305C23.4494 12.3905 23.5969 12.4264 23.7418 12.4522C23.9897 12.4961 24.2018 12.3914 24.402 12.2589C24.5336 12.1717 24.5697 12.1751 24.6833 12.289L24.8077 12.4132C24.903 12.5084 24.9984 12.6036 25.0933 12.6992C25.1855 12.792 25.1853 12.8573 25.0929 12.9505C24.5484 13.5011 24.1112 14.1274 23.7729 14.8232L23.7144 14.9432C23.6771 15.0472 23.6383 15.151 23.5996 15.2547C23.5133 15.4854 23.4269 15.7167 23.3558 15.952C23.2155 16.4165 23.1511 16.8957 23.1402 17.3815C23.137 17.5172 23.0859 17.5665 22.9489 17.5665L22.407 17.5665C22.0497 17.5666 21.6925 17.5666 21.3353 17.5665C21.2008 17.5665 21.1562 17.5207 21.1575 17.384C21.1616 16.9879 21.2196 16.5992 21.3142 16.2152C21.3187 16.197 21.3262 16.1795 21.3337 16.162C21.3362 16.1563 21.3386 16.1505 21.341 16.1447C21.342 16.1423 21.343 16.1398 21.344 16.1373ZM14.178 22.5899C18.0325 22.5574 23.7539 21.16 23.7539 21.16C23.7539 21.16 17.9919 20.7384 14.178 20.7384C10.3641 20.7384 4.24688 21.16 4.24688 21.16C4.24688 21.16 10.1888 22.6236 14.178 22.5899Z" fill="#09080C"/>
</svg>
