<svg width="28" height="28" viewBox="0 0 28 28" fill="none" xmlns="http://www.w3.org/2000/svg">
<path d="M27.5128 8.95108C27.3023 8.75153 27.0419 8.62451 26.7648 8.58612C26.4877 8.54774 26.2063 8.59973 25.9564 8.7355L20.0984 11.9058L15.2076 3.07584C15.0819 2.84926 14.9044 2.66183 14.6924 2.53172C14.4805 2.40162 14.2412 2.33325 13.9977 2.33325C13.7543 2.33325 13.515 2.40162 13.303 2.53172C13.091 2.66183 12.9136 2.84926 12.7878 3.07584L7.89702 11.9096L2.04133 8.7393C1.79205 8.60474 1.51176 8.5532 1.23563 8.59115C0.959508 8.6291 0.699844 8.75485 0.489229 8.95262C0.278613 9.15039 0.126429 9.41137 0.0517746 9.7028C-0.0228803 9.99424 -0.0166804 10.3031 0.0695964 10.5908L4.3864 24.9663C4.42981 25.1107 4.5025 25.2427 4.59911 25.3525C4.69572 25.4623 4.81379 25.5471 4.94459 25.6006C5.0754 25.6542 5.2156 25.6751 5.35485 25.6619C5.49409 25.6487 5.62883 25.6016 5.74911 25.5242C5.77828 25.5052 8.76155 23.6373 13.9977 23.6373C19.2339 23.6373 22.2171 25.5052 22.244 25.523C22.3643 25.6011 22.4993 25.6488 22.6389 25.6625C22.7785 25.6762 22.9191 25.6555 23.0504 25.602C23.1816 25.5485 23.3001 25.4636 23.397 25.3536C23.4939 25.2435 23.5668 25.1111 23.6102 24.9663L27.927 10.5946C28.0158 10.3069 28.0238 9.99698 27.95 9.70432C27.8763 9.41165 27.7241 9.14946 27.5128 8.95108ZM19.5792 19.1735C19.5411 19.4081 19.4282 19.6208 19.2604 19.774C19.0925 19.9273 18.8803 20.0114 18.661 20.0117C18.6063 20.0116 18.5517 20.0065 18.4977 19.9965C15.5164 19.4402 12.4697 19.4402 9.4884 19.9965C9.36767 20.0196 9.24392 20.0167 9.12423 19.9879C9.00454 19.959 8.89124 19.9049 8.79082 19.8284C8.58799 19.6741 8.44988 19.4385 8.40687 19.1735C8.36386 18.9084 8.41947 18.6357 8.56147 18.4152C8.70347 18.1948 8.92023 18.0447 9.16406 17.9979C12.36 17.401 15.6261 17.401 18.822 17.9979C18.9432 18.0204 19.0591 18.0688 19.163 18.1401C19.2669 18.2114 19.3569 18.3044 19.4277 18.4136C19.4985 18.5229 19.5487 18.6462 19.5755 18.7766C19.6023 18.907 19.6052 19.0419 19.5839 19.1735H19.5792Z" fill="#09080C"/>
</svg>
