<svg width="28" height="28" viewBox="0 0 28 28" fill="none" xmlns="http://www.w3.org/2000/svg">
<path d="M10.9752 0.0219727C10.3956 0.0219727 9.87601 0.37907 9.66825 0.920097L4.29227 14.92C4.12698 15.3505 4.18424 15.8348 4.4454 16.2149C4.70656 16.5948 5.13811 16.8219 5.59922 16.8219H11.6713L8.28255 27.4386C8.12666 27.924 8.7507 28.1763 9.08174 27.7886L23.5138 10.669C23.8357 10.2456 23.8897 9.67632 23.6534 9.19983C23.4169 8.72334 22.931 8.42194 22.3991 8.42194H16.7237L20.2606 2.106C20.5034 1.67247 20.4982 1.14272 20.2469 0.714031C19.9958 0.285353 19.536 0.0219727 19.0392 0.0219727H10.9752Z" fill="#09080C"/>
</svg>
