<svg width="28" height="28" viewBox="0 0 28 28" fill="none" xmlns="http://www.w3.org/2000/svg">
<path d="M26.8346 13.6501C26.8232 12.6453 25.9791 11.9005 25.0094 11.9005L21.9523 11.9715C21.5302 11.9715 21.1195 12.1488 20.8115 12.4561C20.4921 12.7753 20.321 13.2127 20.321 13.6619V25.2705C20.321 25.5187 20.378 25.7551 20.4807 25.9679C20.8686 26.7954 22.0207 27.1146 22.7166 26.5472C25.865 23.6509 26.8346 19.0524 26.8346 13.8511C26.8346 13.7801 26.8346 13.721 26.8346 13.6501Z" fill="#09080C"/>
<path d="M7.04278 26.5945C7.27093 26.5945 7.49908 26.5826 7.71582 26.5472H17.2866C17.4806 26.5472 17.6631 26.4999 17.8342 26.4171C18.2677 26.2044 18.5414 25.7433 18.5414 25.2468V13.2718C18.5414 12.728 18.2449 12.2434 17.7772 12.0069C17.6403 11.936 17.5262 11.8532 17.4235 11.7469C16.4197 10.5529 14.6743 6.98285 14.6743 6.04896C14.6743 5.20965 14.3207 3.31823 14.218 2.77445C14.2066 2.67988 14.1952 2.63259 14.1952 2.63259C14.1952 2.63259 14.1952 1.16675 12.7465 1.16675C11.7769 1.16675 11.3092 1.6396 11.2977 1.65142C10.8186 2.14792 9.849 4.08662 9.849 6.04896C9.849 7.00649 10.3053 8.87427 10.773 10.7775L10.8072 10.9312H5.41152C5.26323 10.9194 5.11493 10.9075 4.95523 10.9075C2.85626 10.9075 1.16797 12.2197 1.16797 13.8511C1.16797 14.9623 1.96649 15.9434 3.15286 16.4399C1.96649 16.9837 1.16797 17.9885 1.16797 19.1352C1.16797 20.601 2.45701 21.8186 4.20234 22.1615C3.74604 22.6225 3.47226 23.2017 3.47226 23.8401C3.47226 25.365 5.0693 26.6063 7.03138 26.6063L7.04278 26.5945Z" fill="#09080C"/>
</svg>
