<svg width="28" height="28" viewBox="0 0 28 28" fill="none" xmlns="http://www.w3.org/2000/svg">
<path d="M9.21316 20.9746C9.26549 21.0381 9.36234 20.9708 9.32496 20.8967L3.82712 9.99834C3.57837 9.50542 3.63478 8.90724 3.9712 8.47325L8.50771 2.61813C8.59674 2.50341 8.51756 2.33325 8.37518 2.33325H5.68556C5.27268 2.33325 4.88224 2.52691 4.62466 2.85951L0.297813 8.44378C-0.109624 8.96968 -0.0977305 9.72013 0.325677 10.232L9.21316 20.9746Z" fill="#09080C"/>
<path d="M10.8279 2.33325H17.1344C17.1844 2.33325 17.2318 2.35734 17.2628 2.39889L22.3457 9.13829C22.427 9.24617 22.4408 9.3949 22.3806 9.51779L14.5431 25.4788C14.42 25.7292 13.5424 25.7292 13.4193 25.4788L5.58176 9.51744C5.52152 9.3949 5.53535 9.24617 5.61665 9.13795L10.6996 2.39889C10.7308 2.35734 10.7779 2.33325 10.8279 2.33325Z" fill="#09080C"/>
<path d="M19.4916 2.61813C19.4026 2.50341 19.4821 2.33325 19.6245 2.33325H22.3141C22.727 2.33325 23.1174 2.52691 23.3753 2.85985L27.7022 8.44402C28.1096 8.96991 28.0977 9.71999 27.6743 10.2322L18.7869 20.9746C18.7342 21.0381 18.6377 20.9708 18.6751 20.8967L24.1729 9.99855C24.4216 9.50563 24.3649 8.90746 24.0288 8.47349L19.4916 2.61813Z" fill="#09080C"/>
</svg>
