<svg width="28" height="28" viewBox="0 0 28 28" fill="none" xmlns="http://www.w3.org/2000/svg">
    <path d="M19.0786 19.5025L19.8884 18.2228C20.0183 18.0228 20.2083 17.8729 20.4382 17.7929L21.8978 17.303C22.2777 17.1731 22.5577 16.8332 22.5977 16.4333L22.7576 14.9636C22.7876 14.7237 22.8976 14.5038 23.0675 14.3338L24.1473 13.2941C24.4472 13.0141 24.5372 12.5743 24.3972 12.1944L23.8873 10.8147C23.8073 10.5848 23.8073 10.3348 23.8873 10.1049L24.3972 8.72525C24.5372 8.34535 24.4372 7.90546 24.1473 7.62553L23.0675 6.5858C22.8976 6.41584 22.7876 6.1959 22.7576 5.95596L22.5977 4.48634C22.5577 4.08645 22.2777 3.74653 21.8978 3.61657L20.4382 3.12669C20.2083 3.04671 20.0183 2.89675 19.8884 2.6968L19.0786 1.41713C18.8686 1.07722 18.4787 0.897268 18.0888 0.947255L16.5292 1.12721C16.2993 1.1572 16.0593 1.09722 15.8594 0.977248L14.5397 0.157459C14.2098 -0.0524864 13.7799 -0.0524864 13.45 0.157459L12.1304 0.977248C11.9304 1.09722 11.7005 1.1572 11.4605 1.12721L9.91093 0.947255C9.52103 0.897268 9.13113 1.08722 8.92118 1.41713L8.11139 2.6968C7.98143 2.89675 7.79148 3.04671 7.56154 3.12669L6.10191 3.61657C5.72201 3.74653 5.44208 4.08645 5.40209 4.48634L5.24213 5.95596C5.21214 6.1959 5.10217 6.41584 4.93221 6.5858L3.85249 7.62553C3.55257 7.90546 3.46259 8.34535 3.60256 8.72525L4.11243 10.1049C4.19241 10.3348 4.19241 10.5848 4.11243 10.8147L3.60256 12.1944C3.46259 12.5743 3.56257 13.0141 3.85249 13.2941L4.93221 14.3338C5.10217 14.5038 5.21214 14.7237 5.24213 14.9636L5.40209 16.4333C5.44208 16.8332 5.72201 17.1731 6.10191 17.303L7.56154 17.7929C7.79148 17.8729 7.98143 18.0228 8.11139 18.2228L8.92118 19.5025C9.13113 19.8424 9.52103 20.0223 9.91093 19.9723L11.4705 19.7924C11.7005 19.7624 11.9404 19.8224 12.1404 19.9424L13.46 20.7621C13.7899 20.9721 14.2198 20.9721 14.5497 20.7621L15.8694 19.9424C16.0693 19.8224 16.2993 19.7624 16.5392 19.7924L18.0988 19.9723C18.4887 20.0223 18.8786 19.8324 19.0886 19.5025H19.0786ZM6.5218 10.4648C6.5218 6.44584 9.88094 3.16668 13.9999 3.16668C18.1188 3.16668 21.4779 6.43584 21.4779 10.4648C21.4779 14.4938 18.1188 17.7629 13.9999 17.7629C9.88094 17.7629 6.5218 14.4938 6.5218 10.4648Z" fill="#09080C"/>
    <path d="M13.9999 4.85625C10.8307 4.85625 8.26135 7.3656 8.26135 10.4548C8.26135 13.544 10.8407 16.0534 13.9999 16.0534C17.1591 16.0534 19.7384 13.544 19.7384 10.4548C19.7384 7.3656 17.1591 4.85625 13.9999 4.85625Z" fill="#09080C"/>
    <path d="M11.0506 21.5419L9.01116 21.7819C8.62126 21.8319 8.23136 21.6419 8.02142 21.312L6.84172 19.4425C6.79173 19.3625 6.71175 19.3025 6.62178 19.2625C6.40183 19.1925 6.1619 19.3125 6.08192 19.5325L4.32237 24.8911C4.09243 25.5809 4.63229 26.2807 5.35211 26.2407L7.7115 26.1108C7.96143 26.1008 8.20137 26.1707 8.40132 26.3307L10.2608 27.7803C10.8207 28.2202 11.6505 27.9703 11.8704 27.2905L13.1201 23.4914C13.2701 23.0416 13.0901 22.5417 12.6902 22.2917L11.7205 21.6919C11.5205 21.5719 11.2906 21.5119 11.0506 21.5419Z" fill="#09080C"/>
    <path d="M21.148 19.4425L19.9683 21.312C19.7584 21.6519 19.3685 21.8319 18.9786 21.7819L16.9391 21.5419C16.7092 21.5119 16.4692 21.5719 16.2693 21.6919L15.2995 22.2917C14.8996 22.5417 14.7197 23.0416 14.8696 23.4914L16.1193 27.2905C16.3393 27.9703 17.1691 28.2202 17.7289 27.7803L19.5884 26.3307C19.7884 26.1807 20.0283 26.1008 20.2783 26.1108L22.6376 26.2407C23.3575 26.2807 23.8973 25.5809 23.6674 24.8911L21.9078 19.5325C21.8378 19.3125 21.5979 19.1925 21.368 19.2625C21.278 19.2925 21.198 19.3525 21.148 19.4425Z" fill="#09080C"/>
</svg>
