<svg width="28" height="28" viewBox="0 0 28 28" fill="none" xmlns="http://www.w3.org/2000/svg">
<path d="M6.73936 8.22745C6.90424 8.02091 6.89629 7.72171 6.70942 7.53483L4.07091 4.89632C3.87013 4.69554 3.5419 4.70157 3.35718 4.91721C1.43598 7.16 0.276235 9.95549 0.0455681 12.8996C0.0233732 13.1829 0.251285 13.4196 0.535439 13.4196H4.25964C4.52308 13.4196 4.73987 13.2149 4.77032 12.9532C4.97146 11.2249 5.65377 9.58729 6.73936 8.22745ZM6.70184 19.818C6.86457 20.0245 6.85563 20.3219 6.66969 20.5078L4.07181 23.1057C3.87113 23.3064 3.5431 23.3005 3.35833 23.085C1.4356 20.8434 0.276022 18.0473 0.0479773 15.1028C0.0260501 14.8197 0.253895 14.5833 0.537862 14.5833H4.25279C4.51784 14.5833 4.7354 14.7905 4.76366 15.054C4.9557 16.8447 5.6481 18.4802 6.70184 19.818ZM4.8977 23.9324C4.69684 24.1333 4.70291 24.4616 4.9187 24.6463C7.16141 26.5659 9.95608 27.7244 12.8991 27.9545C13.1824 27.9767 13.419 27.7488 13.419 27.4646V23.8336C13.419 23.5702 13.2144 23.3534 12.9527 23.3229C11.2046 23.1192 9.54996 22.4233 8.18177 21.3164C7.97529 21.1494 7.67428 21.1564 7.48647 21.3441L4.8977 23.9324ZM27.9516 12.8965C27.9737 13.1798 27.7458 13.4167 27.4616 13.4167H23.8311C23.5675 13.4167 23.3507 13.2118 23.3204 12.95C23.1182 11.2035 22.4238 9.55013 21.3186 8.18297C21.1517 7.97646 21.1587 7.6755 21.3464 7.48772L23.9328 4.90139C24.1339 4.70024 24.4628 4.70667 24.6474 4.92312C26.5105 7.10791 27.715 9.86742 27.9516 12.8965ZM12.8965 0.0484359C13.1799 0.0263165 13.4167 0.254228 13.4167 0.538397V4.26271C13.4167 4.52609 13.212 4.74286 12.9504 4.77321C11.1756 4.97914 9.55543 5.68063 8.22874 6.73893C8.02239 6.90354 7.72366 6.89558 7.53685 6.7091L4.8957 4.07256C4.69445 3.87165 4.70051 3.54287 4.91668 3.35809C7.10211 1.48996 9.8666 0.285 12.8965 0.0484359ZM23.1067 4.07372C23.3074 3.87298 23.3015 3.54483 23.0859 3.36008C20.844 1.43852 18.0494 0.27805 15.1058 0.0463475C14.8225 0.0240441 14.5857 0.251982 14.5857 0.536204V4.25041C14.5857 4.51571 14.7931 4.73338 15.0569 4.76162C16.7955 4.94775 18.4467 5.62051 19.8203 6.70244C20.0268 6.86514 20.3242 6.85623 20.5101 6.67029L23.1067 4.07372ZM27.9988 13.9434V14.056L28 14L27.9988 13.9434ZM14 28H14.0198H13.9802H14ZM23.1049 23.9281C23.3059 24.1287 23.3001 24.4571 23.0844 24.642C20.8425 26.5636 18.0469 27.7229 15.103 27.9518C14.8198 27.9739 14.5833 27.746 14.5833 27.462V23.8408C14.5833 23.5756 14.7906 23.358 15.0542 23.3298C16.8625 23.136 18.5149 22.4284 19.8647 21.3537C20.071 21.1894 20.3694 21.1975 20.5561 21.3838L23.1049 23.9281ZM0.00233316 14.0898V13.9102C0.00233316 13.9405 0 13.9697 0 14C0 14.0303 0.00233316 14.0595 0.00233316 14.0898ZM14 0C13.9615 0 13.9236 0.00291618 13.8851 0.00291618H14.1149C14.0764 0.00291618 14.0391 0 14 0ZM21.3534 19.8665C21.1885 20.073 21.1964 20.3722 21.3833 20.5591L23.9297 23.1054C24.1304 23.3062 24.4587 23.3002 24.6434 23.0845C26.5634 20.8427 27.7227 18.0488 27.9538 15.1063C27.976 14.823 27.7481 14.5863 27.4639 14.5863H23.8429C23.5776 14.5863 23.3599 14.7937 23.3317 15.0575C23.1432 16.816 22.4568 18.4843 21.3534 19.8665ZM19.2967 17.5467C19.2967 18.515 18.5092 19.2967 17.5467 19.2967C17.2572 19.2965 16.9722 19.2247 16.7173 19.0875C16.4624 18.9502 16.2455 18.752 16.086 18.5104C15.9265 18.2688 15.8294 17.9915 15.8033 17.7032C15.7874 17.5271 15.7983 17.3503 15.8351 17.1786C15.8777 16.9797 15.8429 16.7639 15.6996 16.6195L15.4558 16.3737C15.293 16.2097 15.0409 16.1844 14.8261 16.2693C14.5655 16.3724 14.2884 16.4267 14.0058 16.4267C13.6947 16.4267 13.3948 16.3623 13.1177 16.2452C12.902 16.154 12.6456 16.1769 12.48 16.3425L12.3466 16.4759C12.192 16.6305 12.1632 16.8659 12.226 17.0754C12.2711 17.2256 12.2967 17.3834 12.2967 17.5467C12.2967 18.515 11.5092 19.2967 10.5467 19.2967C9.58417 19.2967 8.79667 18.515 8.79667 17.5467C8.79667 16.5842 9.58417 15.7967 10.5467 15.7967C10.6734 15.7967 10.7971 15.8107 10.916 15.8364C11.114 15.8792 11.3285 15.8432 11.4718 15.6999L11.6962 15.4754C11.8547 15.317 11.8827 15.0741 11.8067 14.8634C11.7196 14.6218 11.6725 14.3628 11.6725 14.0933C11.6725 13.8043 11.7305 13.5264 11.8332 13.2652C11.9158 13.055 11.8883 12.81 11.7286 12.6503L11.4739 12.3956C11.3296 12.2513 11.113 12.2159 10.9134 12.2586C10.7421 12.2951 10.5658 12.3059 10.3902 12.29C10.1018 12.2639 9.8245 12.1668 9.58292 12.0073C9.34135 11.8478 9.14309 11.6309 9.00588 11.376C8.86866 11.1211 8.79678 10.8362 8.79667 10.5467C8.79667 9.58417 9.58417 8.79667 10.5467 8.79667C11.5092 8.79667 12.2967 9.58417 12.2967 10.5467C12.2967 10.7126 12.2713 10.8694 12.2266 11.0182C12.1636 11.2276 12.192 11.4628 12.3466 11.6174L12.5456 11.8165C12.7079 11.9787 12.9579 12.0042 13.1714 11.92C13.4327 11.8171 13.7152 11.76 14.0058 11.76C14.2715 11.76 14.5317 11.8112 14.7792 11.9026C14.9875 11.9795 15.2275 11.9492 15.3839 11.7916L15.6543 11.5192C15.7969 11.3755 15.8322 11.1609 15.7898 10.9629C15.7638 10.8417 15.7504 10.7179 15.75 10.5933C15.75 9.63083 16.5375 8.84333 17.5 8.84333C18.4625 8.84333 19.25 9.63083 19.25 10.5933C19.25 11.5617 18.4625 12.3433 17.5 12.3433C17.3373 12.3433 17.18 12.3179 17.0302 12.2732C16.82 12.2103 16.5837 12.2396 16.4292 12.3954L16.2514 12.5746C16.0876 12.7398 16.0647 12.9943 16.1552 13.2085C16.272 13.485 16.3392 13.7863 16.3392 14.0933C16.3392 14.3789 16.2826 14.659 16.1785 14.9191C16.0924 15.1342 16.1165 15.3874 16.2804 15.5512L16.4759 15.7467C16.6305 15.9014 16.8659 15.9301 17.0754 15.8673C17.2256 15.8223 17.3834 15.7967 17.5467 15.7967C18.5092 15.7967 19.2967 16.5842 19.2967 17.5467Z" fill="#09080C"/>
</svg>
