<svg width="28" height="28" viewBox="0 0 28 28" fill="none" xmlns="http://www.w3.org/2000/svg">
<path d="M17.2085 11.6101C16.9459 11.8726 16.7984 12.2287 16.7984 12.6C16.7984 12.9713 16.9459 13.3274 17.2085 13.5899C17.471 13.8525 17.8271 14 18.1984 14H20.9984C20.9984 15.4852 20.4084 16.9096 19.3582 17.9598C18.308 19.01 16.8837 19.6 15.3984 19.6H12.5984C11.1132 19.6 9.68884 19.01 8.63864 17.9598C7.58844 16.9096 6.99844 15.4852 6.99844 14V5.6C6.99844 4.11479 7.58844 2.69041 8.63864 1.6402C9.68884 0.589998 11.1132 0 12.5984 0H15.3984C16.8837 0 18.308 0.589998 19.3582 1.6402C20.4084 2.69041 20.9984 4.11479 20.9984 5.6H18.1984C17.8271 5.6 17.471 5.7475 17.2085 6.01005C16.9459 6.2726 16.7984 6.6287 16.7984 7C16.7984 7.3713 16.9459 7.7274 17.2085 7.98995C17.471 8.2525 17.8271 8.4 18.1984 8.4H20.9984V11.2H18.1984C17.8271 11.2 17.471 11.3475 17.2085 11.6101Z" fill="#09080C"/>
<path d="M24.2085 13.0101C24.471 12.7475 24.8271 12.6 25.1984 12.6C25.5697 12.6 25.9258 12.7475 26.1884 13.0101C26.4509 13.2726 26.5984 13.6287 26.5984 14V15.4C26.5984 17.9991 25.5659 20.4918 23.7281 22.3296C21.8902 24.1675 19.3976 25.2 16.7984 25.2H15.3984V26.6C15.3984 26.9713 15.2509 27.3274 14.9884 27.59C14.7258 27.8525 14.3697 28 13.9984 28C13.6271 28 13.271 27.8525 13.0085 27.59C12.7459 27.3274 12.5984 26.9713 12.5984 26.6V25.2H11.1984C8.59932 25.2 6.10665 24.1675 4.26879 22.3296C2.43093 20.4918 1.39844 17.9991 1.39844 15.4V14C1.39844 13.6287 1.54594 13.2726 1.80849 13.0101C2.07104 12.7475 2.42713 12.6 2.79844 12.6C3.16974 12.6 3.52584 12.7475 3.78839 13.0101C4.05094 13.2726 4.19844 13.6287 4.19844 14V15.4C4.19844 17.2565 4.93594 19.037 6.24869 20.3497C7.56145 21.6625 9.34192 22.4 11.1984 22.4H16.7984C18.655 22.4 20.4354 21.6625 21.7482 20.3497C23.0609 19.037 23.7984 17.2565 23.7984 15.4V14C23.7984 13.6287 23.9459 13.2726 24.2085 13.0101Z" fill="#09080C"/>
</svg>
