<svg width="28" height="28" viewBox="0 0 28 28" fill="none" xmlns="http://www.w3.org/2000/svg">
<path fill-rule="evenodd" clip-rule="evenodd" d="M15.1136 19.8828C15.1136 22.9128 18.3671 25.5461 19.4567 26.3781C19.6348 26.5141 19.5316 26.8342 19.3041 26.8334C17.3563 26.8265 11.2875 26.8127 8.65155 26.8299C8.42518 26.8314 8.31952 26.5145 8.49416 26.3762C9.54104 25.5469 12.8864 22.8322 12.8864 19.8828C11.9287 20.6386 9.57255 22.0252 7.70268 21.9925C5.84854 21.9599 4.56357 21.2638 3.58617 20.392C2.53476 19.4539 1.89038 18.3775 1.76978 16.7398C1.64229 15.0174 2.14686 13.6506 2.8275 12.4515C3.78146 10.7715 5.34086 9.38829 6.80569 8.08133C7.30425 7.6365 7.80392 7.1922 8.30078 6.78873C8.81306 6.37223 9.34196 5.96439 9.81812 5.49607C10.052 5.2665 10.2938 5.05203 10.5311 4.81916C11.6892 3.68161 12.9638 2.44512 13.9118 1.16675C13.9304 1.17085 13.9347 1.18739 13.9576 1.18739C15.5715 3.28654 17.5263 5.10001 19.6378 6.85021C21.2083 8.15227 22.8131 9.38624 24.0989 10.9332C24.5264 11.4474 24.8805 11.9825 25.2258 12.5951C25.8877 13.77 26.4694 15.3258 26.1686 17.0067C25.8987 18.5133 25.2152 19.6832 24.191 20.5972C23.438 21.2692 22.5501 21.7844 21.2706 22.013C20.8607 22.0862 20.3921 22.153 19.9367 22.1566C19.0317 22.1638 18.1755 21.9309 17.4989 21.6437C16.824 21.3569 15.6116 20.2943 15.1136 19.8828Z" fill="#09080C"/>
</svg>
