<svg width="22" height="22" viewBox="0 0 22 22" fill="none" xmlns="http://www.w3.org/2000/svg">
<circle cx="11" cy="11" r="11" fill="white"/>
<path fill-rule="evenodd" clip-rule="evenodd" d="M7.55127 14.3334L8.88245 8.33338H10.4928L9.16164 14.3334H7.55127ZM4.85978 12.4172L6.5239 8.33339H8.2049L5.61275 14.3334H3.92148L2.64575 9.54499C2.63383 9.43244 2.59261 9.32482 2.52607 9.23251C2.45952 9.1402 2.3699 9.06634 2.26586 9.01805C1.76308 8.78471 1.23295 8.61325 0.6875 8.50755L0.725162 8.33339H3.44789C3.62472 8.33233 3.79614 8.3933 3.93136 8.50538C4.06659 8.61746 4.15676 8.7733 4.18569 8.9449L4.85978 12.4172ZM12.5095 10.0471C12.5151 9.83923 12.728 9.61783 13.1942 9.56117C13.7399 9.51296 14.2892 9.60264 14.7859 9.82099L15.0687 8.58976C14.5852 8.42169 14.0743 8.33491 13.5591 8.33338C11.9636 8.33338 10.8413 9.12175 10.8323 10.2513C10.8219 11.087 11.634 11.5527 12.2447 11.831C12.8738 12.1152 13.0847 12.2979 13.0817 12.5519C13.0773 12.9411 12.5794 13.1136 12.1165 13.12C11.54 13.1319 10.9697 13.0058 10.4589 12.7533L10.166 14.0253C10.7388 14.2317 11.3472 14.3362 11.9604 14.3333C13.6564 14.3333 14.7658 13.554 14.7707 12.3475C14.7748 11.4314 13.9592 11.033 13.3065 10.7142C12.8683 10.5002 12.5036 10.322 12.5095 10.0471ZM17.7498 8.33344H19.2266L20.625 14.3334H19.0245L18.8146 13.4372H16.5935L16.233 14.3334H14.415L17.0126 8.77333C17.0732 8.64154 17.1758 8.52924 17.3072 8.45085C17.4385 8.37247 17.5927 8.33158 17.7498 8.33344ZM18.0035 9.95444L17.0919 12.2076H18.5272L18.0035 9.95444Z" fill="#1434CB"/>
</svg>
