<svg width="70" height="24" viewBox="0 0 70 24" fill="none" xmlns="http://www.w3.org/2000/svg">
<path d="M51.7165 16.3471C50.8816 16.3471 50.0468 16.3471 49.1995 16.3471C49.1074 15.9149 49.0086 15.4922 48.9307 15.0658C48.8983 14.889 48.8403 14.8203 48.6381 14.8229C47.6289 14.8355 46.6194 14.8324 45.6101 14.8246C45.4573 14.8234 45.3965 14.8727 45.3501 15.0086C45.211 15.4149 45.059 15.817 44.9034 16.2175C44.8823 16.2719 44.8123 16.3465 44.7644 16.3469C43.8547 16.3547 42.9448 16.3526 42.0088 16.3526C42.1794 15.9515 42.3409 15.5685 42.5049 15.1866C43.6779 12.4539 44.8514 9.72133 46.0247 6.98878C46.2789 6.39694 46.6599 6.14911 47.3153 6.14908C48.0456 6.14902 48.776 6.14906 49.525 6.14906C49.598 6.48222 49.6715 6.8105 49.7418 7.13944C50.3191 9.83996 50.895 12.5407 51.4736 15.241C51.5477 15.5869 51.6351 15.9301 51.7165 16.2744C51.7165 16.2987 51.7165 16.3228 51.7165 16.3471ZM48.4223 12.7231C48.1541 11.4674 47.8895 10.2286 47.6248 8.98973C47.614 8.98766 47.6032 8.98559 47.5924 8.98352C47.1313 10.2255 46.6702 11.4674 46.2039 12.7231C46.9569 12.7231 47.678 12.7231 48.4223 12.7231Z" fill="white"/>
<path d="M40.7523 5.96753C41.0844 6.02775 41.4191 6.07726 41.748 6.15134C42.0481 6.21893 42.342 6.31314 42.6609 6.40185C42.5001 7.13591 42.3432 7.85238 42.1897 8.5534C41.7689 8.4329 41.3667 8.29416 40.9532 8.20505C40.3877 8.08318 39.8084 8.03674 39.2426 8.19066C39.0126 8.25323 38.7799 8.37338 38.5988 8.52485C38.2883 8.78464 38.2841 9.15863 38.5808 9.43138C38.7853 9.61948 39.0277 9.77387 39.2699 9.91606C39.8206 10.2394 40.3988 10.5206 40.934 10.8661C41.5643 11.2728 42.024 11.8321 42.1206 12.5882C42.2913 13.9257 41.7848 14.9791 40.6342 15.7244C39.9107 16.1931 39.0919 16.4024 38.2389 16.4799C37.0477 16.5881 35.88 16.4578 34.7419 16.0928C34.6655 16.0682 34.5913 16.0377 34.5169 16.008C34.4947 15.9991 34.4754 15.9834 34.4414 15.9627C34.6021 15.2275 34.7631 14.4912 34.9287 13.7343C35.1227 13.8171 35.3048 13.8999 35.491 13.9732C36.3802 14.3231 37.2985 14.4831 38.2502 14.309C38.4978 14.2637 38.7503 14.1569 38.9602 14.0196C39.4157 13.7214 39.4593 13.1612 39.0446 12.811C38.772 12.5809 38.4445 12.411 38.1338 12.2262C37.6488 11.9377 37.1335 11.6918 36.6744 11.3689C36.0861 10.955 35.6599 10.4031 35.5791 9.66962C35.4582 8.57131 35.8756 7.67953 36.739 6.98659C37.4902 6.38368 38.3821 6.11612 39.3323 6.00374C39.3851 5.9975 39.4365 5.97987 39.4886 5.96753C39.9098 5.96753 40.3311 5.96753 40.7523 5.96753Z" fill="white"/>
<path d="M30.9646 6.15745C30.8232 6.48966 30.6894 6.8064 30.5537 7.12241C29.2583 10.1397 27.9613 13.1563 26.6713 16.1757C26.6099 16.3196 26.5347 16.3574 26.3853 16.3562C25.5677 16.3495 24.75 16.3469 23.9325 16.3579C23.7592 16.3602 23.7027 16.3009 23.6628 16.1491C22.9697 13.5118 22.265 10.8773 21.5798 8.23805C21.454 7.75384 21.2024 7.42314 20.7304 7.22019C19.9738 6.89486 19.1883 6.66634 18.3872 6.48058C18.3517 6.47236 18.3165 6.46337 18.2832 6.45525C18.2872 6.14915 18.2872 6.14914 18.5853 6.14914C20.0161 6.14914 21.447 6.14882 22.8778 6.14927C23.5564 6.14949 24.0463 6.53442 24.1746 7.1903C24.5378 9.04706 24.8933 10.9053 25.2521 12.7629C25.2678 12.8441 25.2857 12.9249 25.3094 13.0394C25.3466 12.9712 25.3724 12.933 25.3893 12.8912C26.278 10.6965 27.1669 8.5019 28.051 6.30544C28.0993 6.18554 28.1588 6.14487 28.2915 6.14589C29.1214 6.15232 29.9514 6.149 30.7814 6.14945C30.8351 6.14948 30.8886 6.15401 30.9646 6.15745Z" fill="white"/>
<path d="M29.8809 16.3529C30.6283 12.942 31.3706 9.55508 32.1146 6.15991C33.0197 6.15991 33.9141 6.15991 34.8256 6.15991C34.7128 6.67702 34.6025 7.18425 34.4914 7.69134C33.8772 10.4958 33.2607 13.2997 32.6533 16.1054C32.6111 16.3003 32.5403 16.3623 32.3331 16.3584C31.5901 16.3444 30.8468 16.3529 30.1035 16.3529C30.0368 16.3529 29.9702 16.3529 29.8809 16.3529Z" fill="white"/>
</svg>
